<svg width="120" height="120" fill="none" xmlns="http://www.w3.org/2000/svg"><path fill-rule="evenodd" clip-rule="evenodd" d="M103.775 13.45c-5.395.006-9.767 4.398-9.773 9.818 0 .227.01.451.026.675L81.881 35.126a9.737 9.737 0 0 0-12.527-1.738c-4.036 2.58-5.618 7.717-3.738 12.136l-11.708 9.92a9.756 9.756 0 0 0-7.968-4.93 9.746 9.746 0 0 0-8.435 4.07l-11.833-8.277c1.364-4.902-1.222-10.04-5.96-11.843-4.738-1.804-10.064.321-12.277 4.9-2.214 4.579-.584 10.098 3.758 12.723a9.762 9.762 0 0 0 12.95-2.618l11.854 8.291a9.844 9.844 0 0 0 3.488 10.365 9.738 9.738 0 0 0 10.87.687 9.833 9.833 0 0 0 4.755-9.843L67.537 48.44a9.733 9.733 0 0 0 12.302 1.527c3.937-2.505 5.564-7.457 3.883-11.825l11.34-10.44c2.173 4.31 7.146 6.39 11.722 4.904 4.576-1.487 7.395-6.097 6.646-10.87-.75-4.772-4.844-8.287-9.654-8.286h-.001ZM16.258 50.023a6.316 6.316 0 0 1-5.835-3.917 6.366 6.366 0 0 1 1.369-6.915 6.295 6.295 0 0 1 6.883-1.375 6.345 6.345 0 0 1 3.9 5.862c-.005 3.503-2.83 6.341-6.317 6.345Zm23.337 12.723a6.316 6.316 0 0 0 5.835 3.917c3.487-.004 6.313-2.843 6.317-6.345a6.345 6.345 0 0 0-3.9-5.862 6.295 6.295 0 0 0-6.883 1.375 6.366 6.366 0 0 0-1.369 6.915Zm35.008-14.732c-3.488 0-6.316-2.841-6.316-6.345 0-3.505 2.828-6.345 6.316-6.345s6.316 2.84 6.316 6.345c-.003 3.503-2.83 6.341-6.316 6.345Zm22.856-24.746c0 3.504 2.828 6.345 6.316 6.345 3.487-.004 6.313-2.843 6.316-6.345 0-3.505-2.827-6.345-6.316-6.345-3.488 0-6.316 2.84-6.316 6.345Z" fill="#633185"/><path fill="#F9B6C2" d="M96.05 44.95h4.9v58.8h-4.9z"/><path fill="#EFB9C2" d="M68.05 63.85h4.9v39.9h-4.9zM9.95 66.65h4.2v36.4h-4.2z"/><path fill="#F9B6C2" d="M39.35 82.75h3.5v20.3h-3.5z"/><path d="M110.561 42.85h-14.19a1.756 1.756 0 0 0-1.721 1.76v40.94h3.442V46.289h10.615V85.55h3.443V44.61c0-.95-.639-1.76-1.589-1.76Z" fill="#F0572D"/><path d="M96.24 105.85h14.189a1.757 1.757 0 0 0 1.721-1.76V63.15h-3.443v39.261H98.093V63.15H94.65v40.94c0 .95.639 1.76 1.59 1.76Z" fill="#F0572D"/><path d="M81.784 61.05H67.595c-.95 0-1.644.911-1.644 1.866v42.041c-.012.436.16.857.473 1.159.313.302.738.459 1.171.431h5.814v-3.456h-4.016V64.506h10.614V93.3h3.443V62.916c0-.955-.716-1.866-1.666-1.866Z" fill="#F04C1C"/><path d="M67.616 106.55h14.189c.95 0 1.644-.911 1.644-1.866V62.643a1.555 1.555 0 0 0-.473-1.159 1.543 1.543 0 0 0-1.171-.43H75.99v3.455h4.016v38.586H69.392V74.299H65.95v30.385c0 .955.715 1.866 1.666 1.866Z" fill="#F0572D"/><path fill-rule="evenodd" clip-rule="evenodd" d="M52.329 79.95c.95 0 1.72.768 1.72 1.716v23.168c0 .948-.77 1.716-1.72 1.716H38.27c-.95 0-1.721-.768-1.721-1.716V81.666c0-.948.77-1.716 1.721-1.716H52.33Zm-12.337 22.882h10.902v-19.45H39.993v19.45ZM23.629 63.15c.95 0 1.721.777 1.721 1.736v39.928c0 .959-.77 1.736-1.721 1.736H9.57c-.95 0-1.721-.777-1.721-1.736V64.886c0-.959.77-1.736 1.721-1.736H23.63Zm-12.336 39.928h10.901V66.622H11.293v36.456Z" fill="#F0572D"/></svg>