<svg width="121" height="120" fill="none" xmlns="http://www.w3.org/2000/svg"><path d="M36.667 82.033a3.434 3.434 0 0 1-2.426 1c-.911 0-1.784-.36-2.426-1l-7.253-7.228c-.132.134-.262.27-.396.402a3.415 3.415 0 0 0 0 4.835l7.65 7.622a3.434 3.434 0 0 0 2.426 1.001c.91 0 1.784-.36 2.426-1.001 1.255-1.25 4.045-3.3 5.395-4.452l-2.965-2.954c-.32.306-2.118 1.463-2.431 1.775ZM61.635 66.57A69.362 69.362 0 0 0 43.27 76.743L32.42 65.776a70.097 70.097 0 0 1-2.327 3.271L43.27 82.365a69.352 69.352 0 0 1 18.366-10.173l24.527-9.014-4.079-4.123-20.449 7.515Z" fill="#EFB9C2"/><path fill-rule="evenodd" clip-rule="evenodd" d="M29.957 88.978a6.811 6.811 0 0 0 9.618 0l.065-.063.07-.069 15.143 15.095a1.626 1.626 0 0 0 2.295 0 11.927 11.927 0 0 0 0-16.886L50.4 80.33a63.92 63.92 0 0 1 12.456-6.133l26.648-9.66a1.615 1.615 0 0 0 .593-2.665l-11.77-11.732a11.912 11.912 0 0 0-1.226-15.455 12.007 12.007 0 0 0-15.504-1.222L49.826 21.73a1.627 1.627 0 0 0-2.673.591l-9.69 26.564a63.919 63.919 0 0 1-14.828 23.208 6.768 6.768 0 0 0-1.992 4.794c0 1.798.717 3.522 1.992 4.793l7.322 7.3Zm24.896.365a8.69 8.69 0 0 1 1.042 11.061l-13.823-13.78a63.936 63.936 0 0 1 5.589-4.45l7.192 7.169Zm21.139-41.53a8.685 8.685 0 0 0-1.186-10.84 8.767 8.767 0 0 0-10.872-1.181l12.058 12.02Zm-35.478 2.176 8.818-24.175L86 62.364l-24.253 8.79a67.463 67.463 0 0 0-17.976 9.865L30.619 67.907a67.124 67.124 0 0 0 9.895-17.918ZM28.57 70.442a65.404 65.404 0 0 1-3.64 3.938 3.537 3.537 0 0 0 0 5.011l7.323 7.3a3.563 3.563 0 0 0 5.027 0 66.66 66.66 0 0 1 3.95-3.628L28.57 70.442Z" fill="#F0572D"/><path d="M88.449 48.858a1.62 1.62 0 0 0 2.108-.898 17.606 17.606 0 0 0-22.909-22.91 1.62 1.62 0 0 0 1.212 3.007 14.365 14.365 0 0 1 18.692 18.692 1.62 1.62 0 0 0 .897 2.109Z" fill="#633185"/><path d="M96.05 52.008a1.612 1.612 0 0 0 2.099-.894 25.87 25.87 0 0 0-5.7-27.953 25.85 25.85 0 0 0-27.945-5.7 1.613 1.613 0 1 0 1.206 2.991 22.625 22.625 0 0 1 24.46 4.99 22.641 22.641 0 0 1 4.987 24.467 1.614 1.614 0 0 0 .893 2.1Z" fill="#633185"/></svg>