<svg width="186" height="34" fill="none" xmlns="http://www.w3.org/2000/svg"><path d="M11.212.87h7.186l-.235 16.631c0 8.374-3.061 12.955-9.633 14.378-2.32.547-4.711.939-7.094 1.178l-1.373.144L0 25.433l1.23-.05a27.128 27.128 0 0 0 7.14-1.247c1.28-.497 2.825-1.713 2.669-6.58v-.03l.173-10.45V.872ZM97.444 2.147a4.588 4.588 0 0 1 .998 3.06v26.049H91.47V14.979l-9.338 14.39a4.944 4.944 0 0 1-1.65 1.609 3.916 3.916 0 0 1-2.148.576c-1.558 0-3.023-.858-3.806-2.248l-9.46-14.495v16.445h-6.985V4.904c-.063-.998.278-2.03.969-2.854.745-.783 1.743-1.188 2.745-1.154 1.343-.063 2.711.64 3.52 1.857l13.068 19.22L91.184 2.794C91.916 1.578 93.289.816 94.74.896c.943-.038 1.996.409 2.703 1.25ZM138.636 3.359c-.981-2.071-3.494-2.968-5.582-2.012a4.377 4.377 0 0 0-2.013 2.012l-16.668 27.934h8.416l4.303-7.683 15.371-.063 4.396 7.704h8.096L138.636 3.36Zm-.442 13.056h-7.027l3.478-5.819 3.549 5.819ZM53.494 21.993a8.042 8.042 0 0 1-3.023 6.871l-.143.093c-2.446 1.423-5.166 2.168-7.953 2.168-.391 0-6.686-.042-6.686-.042-.812 0-1.65-.03-2.483-.063a14.739 14.739 0 0 1-2.695-.341 12.194 12.194 0 0 1-2.59-.855 7.182 7.182 0 0 1-2.26-1.65l-.013-.013a7.827 7.827 0 0 1-1.57-2.56 9.6 9.6 0 0 1-.59-3.633V.9h6.88v20.815c0 .56 0 2.261 4.736 2.261h6.871c4.631 0 4.631-1.7 4.631-2.26V.9h6.892l-.004 21.093ZM110.496 1.182h-7.221v30.196h7.221V1.182Z" fill="#282828"/><path d="M183.567 8.02a10.992 10.992 0 0 0-.846-1.196 9.925 9.925 0 0 0-1.411-1.617l-.496-.496-1.124-.952-1.133-.783-.627-.35A14.547 14.547 0 0 0 170.815.8a14.192 14.192 0 0 0-7.116 1.828l-.627.349-1.196.783-1.132.952-.497.496a10.477 10.477 0 0 0-1.41 1.617 14.272 14.272 0 0 0-2.623 5.92 14.075 14.075 0 0 0-.35 3.022 15.93 15.93 0 0 0 1.486 6.471l.704 1.272.421.56c.24.425.526.834.846 1.196a14.98 14.98 0 0 0 2.033 2.033l1.133.846c.37.278.775.514 1.196.703a14.373 14.373 0 0 0 7.106 1.836 15.12 15.12 0 0 0 7.115-1.756l.64-.425a15.163 15.163 0 0 0 1.756-1.195c.349-.35.766-.628 1.053-.952l.951-1.053.846-1.132.426-.627a15.355 15.355 0 0 0 2.121-7.78 14.55 14.55 0 0 0-2.113-7.74h-.03V8.02h.013Zm-1.73 4.075-5.499 5.356 1.272 7.611-6.838-3.587-6.748 3.587 1.267-7.611-5.486-5.356 7.612-1.124 3.448-6.909 3.381 6.91 7.591 1.123Z" fill="#F8991D"/></svg>
