<svg width="594" height="395" fill="none" xmlns="http://www.w3.org/2000/svg"><path d="M474.95 110c1.93 1.58 13.1 7.23 16.05 7.68-2.25 4.09-10.82 34.64-10.73 37.12-4.27.89-7.57-1.37-9.27-2.9.47-2.97 3.95-41.9 3.95-41.9Z" fill="#C6F9A5"/><path d="M287.95 90c-6.71 9.01-28.14 8.44-28.78 26.86-.64 18.4.58 23.52-8.15 35s-15.18 21.68-7.73 36.44c7.46 14.77-12.42 22.86-18.05 48.36-5.63 25.5-12.5 50.2-7.51 55.78 4.99 5.58 33.26 28.26 33.32 8.84.07-19.42-5.74-64.33 6.47-71.28 12.2-6.95 33.2-29.03 28.34-48.91-4.87-19.88-14.23-45.73.2-56.62 14.42-10.88 1.9-34.47 1.9-34.47Z" fill="#97C941"/><g opacity=".43" fill="#fff"><path d="M233.96 311.91c-.52-.11-.9-.54-.97-1.06-.03-.22-2.78-22.01-5.1-40.87-2.4-19.53 17.23-45.58 24.62-55.4l.06-.1c3.19-4.2 3.74-10.54 4.37-17.86.68-7.88 1.46-16.82 5.67-25.69 6.65-14 7.44-33.83 7.86-44.48.09-2.12.16-3.95.26-5.31.34-4.56 3.66-9.86 7.18-15.48 3.3-5.25 6.7-10.67 8.4-16.32a1.25 1.25 0 1 1 2.38.72c-1.8 5.97-5.45 11.79-8.67 16.93-3.35 5.33-6.51 10.37-6.8 14.32-.1 1.32-.18 3.13-.26 5.22-.43 10.83-1.23 30.99-8.1 45.46-4.02 8.46-4.78 17.15-5.44 24.82-.67 7.67-1.25 14.37-4.86 19.17l-.06.07c-3.53 4.7-10.11 13.43-15.59 23.44-6.64 12.16-9.52 22.3-8.55 30.16 2.32 18.86 5.07 40.65 5.1 40.87.09.68-.4 1.3-1.08 1.4-.14.02-.28.01-.42-.01Z"/><path d="M269.83 147.84c-.32-.08-.6-.27-.78-.55l-11.52-17.92a1.25 1.25 0 0 1 2.1-1.35l11.51 17.92a1.25 1.25 0 0 1-1.3 1.9Z"/><path d="M269.83 147.84a1.25 1.25 0 0 1-.6-2.12l7.94-7.68a1.24 1.24 0 0 1 1.72 1.8l-7.93 7.68c-.3.29-.72.4-1.13.31ZM263.46 172.7c-.31-.07-.59-.26-.77-.53l-13.01-19.78a1.25 1.25 0 0 1 2.08-1.37l13.01 19.78a1.25 1.25 0 0 1-1.3 1.9Z"/><path d="M263.47 172.7a1.25 1.25 0 0 1-.1-2.4l17.85-5.42a1.25 1.25 0 0 1 .72 2.38l-17.85 5.4c-.2.07-.41.08-.62.04ZM258.41 192.57c-.26-.06-.5-.2-.67-.4l-18.24-21.22a1.25 1.25 0 0 1 .69-2.08c.45-.08.91.1 1.2.46l18.24 21.2a1.24 1.24 0 0 1-1.22 2.04Z"/><path d="M258.42 192.57a1.25 1.25 0 0 1-.19-2.38l26.74-10.37a1.24 1.24 0 0 1 1.68 1.35c-.07.44-.37.81-.78.97l-26.74 10.38c-.22.08-.47.1-.71.05ZM255.46 214.3a1.24 1.24 0 0 1-.81-.59l-11.17-18.99a1.25 1.25 0 0 1 1.07-1.87c.44 0 .85.23 1.08.61l11.16 18.99a1.24 1.24 0 0 1-.43 1.72c-.27.16-.6.2-.9.13Z"/><path d="M255.46 214.3a1.25 1.25 0 0 1-.3-2.33l28.16-14.38a1.25 1.25 0 1 1 1.14 2.22l-28.17 14.38c-.26.13-.55.17-.83.1ZM243.3 229.68c-.38-.1-.7-.36-.86-.72l-7.24-16.2a1.25 1.25 0 0 1 2.27-1.02l7.24 16.21a1.24 1.24 0 0 1-1.4 1.72h-.01Z"/><path d="M243.3 229.68a1.25 1.25 0 0 1 .12-2.46l19.15-2.2a1.25 1.25 0 0 1 .28 2.47l-19.14 2.2c-.14.02-.28.02-.41-.01ZM234.23 246.7c-.4-.08-.74-.37-.9-.76l-6.74-17.7a1.25 1.25 0 0 1 2.33-.9l6.74 17.7a1.24 1.24 0 0 1-.72 1.61c-.22.09-.47.1-.7.06Z"/><path d="M234.23 246.7a1.25 1.25 0 0 1 .2-2.45l15.82-.84a1.24 1.24 0 1 1 .13 2.5l-15.82.83c-.1 0-.22 0-.33-.03ZM229.04 266.77a1.24 1.24 0 0 1-.8-.58l-7.83-13.25a1.25 1.25 0 0 1 2.15-1.27l7.82 13.25a1.25 1.25 0 0 1-1.33 1.85Z"/><path d="M229.04 266.77a1.25 1.25 0 0 1-.08-2.42l19.67-5.62a1.25 1.25 0 1 1 .69 2.4l-19.68 5.62c-.2.06-.4.06-.6.02ZM230.75 286.37a1.23 1.23 0 0 1-.62-.36l-13.64-14.26a1.25 1.25 0 0 1 .58-2.13c.45-.1.91.06 1.21.4l13.64 14.28a1.25 1.25 0 0 1-1.16 2.07Z"/><path d="M230.76 286.37a1.25 1.25 0 0 1-.12-2.4l18.85-6.19a1.24 1.24 0 0 1 1.67 1.44c-.1.45-.44.8-.89.93l-18.86 6.19a1.2 1.2 0 0 1-.65.03Z"/></g><path d="m273.16 118-6.95-15.11c-.28-.62 0-1.35.62-1.63a1.25 1.25 0 0 1 1.65.6l5.8 12.6 17.57-10.48c.38-.23.86-.24 1.25-.03a1.23 1.23 0 0 1 .04 2.15L273.16 118Z" fill="#fff" opacity=".43"/><path d="M265 95.17V213.1a6 6 0 0 1-5.2 5.95L57.36 242.92a10.04 10.04 0 0 1-11.36-10V110.84c0-5.06 3.75-9.34 8.76-10L250.02 83.1c3.2-.44 6.45.5 8.91 2.61l2.83 2.42a9.27 9.27 0 0 1 3.24 7.03Z" fill="#2E3435"/><path d="M259 91v121.21L53 236V110.5l24.62-2.33 41.78-3.96 82.84-7.84 49.11-4.65L259 91Z" fill="#E5E5E5"/><path opacity=".2" d="m131 149-60 8.79L72.44 214l58.56-8.02V149Z" fill="#2E3435"/><path d="m133 147-60 8.79L74.44 212l58.56-8.03V147Z" fill="#fff"/><path opacity=".62" d="M115 183c0 9.39-5.82 17-13 17s-13-7.6-13-17c0-1.82.22-3.64.67-5.4 1.25-4.88 4.14-8.77 7.81-10.54 1.4-.7 2.95-1.06 4.52-1.06 7.18 0 13 7.61 13 17Z" fill="#B54B0F"/><path d="M116 183c0 9.39-5.82 17-13 17s-13-7.6-13-17c0-1.82.21-3.64.66-5.4 1.25-4.88 4.14-8.77 7.81-10.54 1.4-.7 2.95-1.06 4.52-1.06 7.19 0 13.01 7.61 13.01 17Z" fill="#F90"/><path d="m103 183-12-5.43c1.21-4.88 4.02-8.79 7.6-10.57l4.4 16Z" fill="#F26002"/><path opacity=".2" d="m248 133-105 14.09 2.28 56.91L248 190.68V133Z" fill="#2E3435"/><path d="m250 131-106 14.43 2.53 56.57L250 188.33V131Z" fill="#fff"/><path d="m153 151 1.43 43L240 182.57" stroke="#2E3435"/><path d="M159 186c1.93-4.31 5.05-17.94 13.95-13.41 8.9 4.52 15.2 3.54 18.66-2.35 3.47-5.9 15.73-18.16 21.74-13.11 6.02 5.05 15.4-13.87 18.65-10.79" stroke="#F90"/><path opacity=".4" d="m237 173-81 11M237 161l-81 11M237 150l-81 11" stroke="#2E3435"/><path opacity=".39" d="m53 196 205.14-55.93L259 91 53 110.54V196Z" fill="#fff"/><path opacity=".55" d="M355.8 59.82c4.37-31.33-64.98-42.45-81.16-32.39-16.18 10.06-67.16-30-80.6-2.78-13.45 27.21-3.71 53.81 22.07 45.92 25.78-7.89 47.1 1.8 67.8 12.03 20.7 10.23 69.3-4.16 71.9-22.78Z" fill="#EFF5FF"/><path opacity=".68" d="M593.87 200.93c2.98-21.6-44.48-29.3-55.55-22.35-11.07 6.94-45.98-20.7-55.19-1.92-9.2 18.78-2.53 37.14 15.1 31.68 17.62-5.46 32.23 1.25 46.4 8.31 14.16 7.06 47.45-2.87 49.24-15.72Z" fill="#E8F4FF"/><path opacity=".55" d="M135.2 32.25c-22.15-16.68-79.74 4.42-63.29 12.62 16.45 8.2 38.95 31.33 61.36 20.12 22.4-11.2 10.06-26.62 1.94-32.74ZM331.36 85.4c25.19 5.59 73.43 20.73 92.5 0 19.06-20.72 135.57 7.44 125.53 18.96-10.04 11.51-104.47-4.67-112.84 9.14-8.38 13.82-87.1-1.7-108.77-10.68-21.66-8.99 3.58-17.41 3.58-17.41Z" fill="#EFF5FF"/><path fill="#fff" d="M542 302h11v3h-11zM542 307h11v3h-11zM542 312h11v3h-11zM542 326h11v3h-11zM542 332h11v3h-11zM506 260h11v3h-11zM506 266h11v3h-11zM506 284h11v3h-11zM506 289h11v3h-11zM506 306h11v3h-11zM506 311h11v3h-11zM506 325h11v3h-11zM506 331h11v3h-11z"/><path d="m513.27 346-.27-.33c6.03-4.8 5.75-17.46 5.5-28.62-.23-10.5-.43-20.4 4.55-22.44 4.37-1.78 10.15-9.72 15.5-21.25 4.64-10 7.61-20 6.91-23.27l.44-.09c1.42 6.66-12.31 40.79-22.67 45-4.72 1.93-4.5 11.7-4.28 22.04.24 11.27.52 24.03-5.68 28.96Z" fill="#9C3E82"/><path d="M549 238.18c-3.4-1.62-5.84 8.01-4.73 12.96 1.12 4.94 4.73-12.96 4.73-12.96ZM541.3 257.11c1.34 3.3.35 6.89.35 6.89s-3.18-1.74-4.53-5.04c-1.34-3.29-1.5-6.38-.35-6.89 1.15-.5 3.18 1.75 4.52 5.04ZM537.3 268.11c1.34 3.3.35 6.89.35 6.89s-3.18-1.74-4.53-5.04-1.5-6.38-.35-6.89c1.15-.5 3.16 1.75 4.52 5.04ZM549.08 263.75c-3.58.82-7.08-.67-7.08-.67s2.31-2.8 5.9-3.62c3.57-.82 6.75-.52 7.07.67.33 1.19-2.3 2.8-5.89 3.63ZM545.08 275.75c-3.59.82-7.08-.67-7.08-.67s2.31-2.8 5.9-3.62c3.58-.82 6.75-.52 7.07.67.33 1.19-2.3 2.8-5.9 3.63ZM532.3 278.1c1.34 3.3.35 6.9.35 6.9s-3.18-1.75-4.53-5.04c-1.35-3.3-1.5-6.38-.35-6.89 1.15-.5 3.18 1.75 4.52 5.04ZM540.08 285.76c-3.59.81-7.08-.67-7.08-.67s2.31-2.81 5.9-3.63c3.58-.82 6.75-.52 7.07.67.33 1.18-2.31 2.8-5.9 3.63ZM524.3 287.1c1.34 3.3.35 6.9.35 6.9s-3.18-1.75-4.53-5.04c-1.34-3.3-1.5-6.38-.35-6.89 1.15-.5 3.19 1.75 4.52 5.04ZM532.08 294.76c-3.58.81-7.08-.67-7.08-.67s2.3-2.81 5.9-3.63c3.58-.82 6.75-.52 7.07.67.33 1.18-2.31 2.8-5.9 3.63ZM518.3 299.1c1.34 3.3.35 6.9.35 6.9s-3.18-1.74-4.53-5.04c-1.34-3.3-1.5-6.38-.35-6.89 1.15-.5 3.17 1.73 4.52 5.04Z" fill="#9C3E82"/><path d="M525.08 305.75c-3.58.82-7.08-.67-7.08-.67s2.3-2.8 5.9-3.62c3.58-.82 6.75-.52 7.07.67.33 1.19-2.31 2.8-5.89 3.63Z" fill="#9C3E82"/><path d="M301 248c2.3 5.4-3.59 14.85 4.55 20 8.13 5.16 10.74 5.96 13.64 12.9 2.9 6.93 5.79 12.53 14.4 13.08 8.62.55 7.05 11.6 17.07 20.88 10.03 9.27 19.34 18.86 23.19 18.1 3.84-.76 21.49-7.46 12.75-12.62-8.74-5.15-30.52-14.41-30.45-21.73.07-7.32-4.37-22.56-14.61-25.63-10.24-3.08-24.37-5.69-25.48-15.04C314.95 248.58 301 248 301 248Z" fill="#C4C443"/><g opacity=".38" fill="#fff"><path d="M386.75 330.7a.65.65 0 0 1-.74.15c-.1-.04-10.66-4.56-19.78-8.5-9.44-4.06-16-19.8-18.48-25.75v-.05c-1.06-2.55-3.77-4.47-6.89-6.7-3.38-2.38-7.2-5.1-10.09-9.34-4.55-6.7-13.29-12.3-17.98-15.3l-2.33-1.53c-1.96-1.35-3.47-4.26-5.07-7.32-1.5-2.88-3.04-5.85-5.14-8.1a.65.65 0 1 1 .95-.89c2.22 2.39 3.88 5.57 5.34 8.39 1.53 2.92 2.96 5.68 4.66 6.86.57.39 1.37.9 2.3 1.49 4.77 3.06 13.64 8.75 18.35 15.67 2.76 4.05 6.46 6.7 9.76 9.02 3.3 2.32 6.15 4.36 7.36 7.25v.05a100.9 100.9 0 0 0 6.46 13.24c3.72 6.2 7.54 10.19 11.34 11.83 9.12 3.93 19.68 8.45 19.78 8.49a.66.66 0 0 1 .35.86.67.67 0 0 1-.15.18Z"/><path d="M322.23 271.14a.65.65 0 0 1-.43.21l-11.13.47a.65.65 0 0 1-.05-1.3l11.13-.46a.65.65 0 0 1 .5 1.1l-.02-.02Z"/><path d="M322.23 271.14a.65.65 0 0 1-1.1-.28l-1.37-5.6a.65.65 0 0 1 1.27-.31l1.36 5.6c.05.21-.01.43-.16.6ZM331.75 280.6a.67.67 0 0 1-.43.21l-12.37.65a.65.65 0 0 1-.07-1.3l12.36-.65a.65.65 0 0 1 .51 1.1v-.01Z"/><path d="M331.75 280.6a.65.65 0 0 1-.62.2.66.66 0 0 1-.49-.8l2.28-9.47a.66.66 0 0 1 1.27.3l-2.28 9.48a.62.62 0 0 1-.16.29ZM339.39 288.12c-.1.1-.22.17-.36.2l-14.4 2.62a.66.66 0 0 1-.23-1.3l14.4-2.63a.65.65 0 0 1 .59 1.09v.02Z"/><path d="M339.4 288.12a.65.65 0 0 1-1.12-.54l2.38-14.82a.65.65 0 1 1 1.3.2l-2.4 14.82a.66.66 0 0 1-.17.34ZM348.4 295.2a.64.64 0 0 1-.47.2l-11.52.04a.65.65 0 0 1-.65-1c.14-.23.4-.34.65-.3l11.52-.03c.36 0 .65.3.66.65 0 .17-.07.32-.18.44Z"/><path d="M348.4 295.2a.65.65 0 0 1-1.12-.48l.96-16.52a.65.65 0 1 1 1.29.07l-.96 16.52c0 .15-.06.3-.16.4ZM352.11 304.75a.64.64 0 0 1-.54.2l-9.23-1a.65.65 0 0 1 .14-1.3l9.23 1.01a.65.65 0 0 1 .4 1.1Z"/><path d="M352.11 304.75a.65.65 0 0 1-1.07-.7l4.09-9.24a.65.65 0 1 1 1.19.53l-4.07 9.23a.57.57 0 0 1-.14.18ZM357.41 313.34a.65.65 0 0 1-.58.2l-9.77-1.63a.66.66 0 0 1 .21-1.3l9.77 1.64a.65.65 0 0 1 .53.75.66.66 0 0 1-.16.34Z"/><path d="M357.41 313.34a.65.65 0 0 1-1.05-.74l3.8-7.37c.1-.21.32-.35.55-.36a.65.65 0 0 1 .6.96l-3.8 7.37a.6.6 0 0 1-.1.14ZM365.09 321c-.13.13-.3.2-.48.2l-8.04.03a.65.65 0 0 1 0-1.29l8.04-.03a.64.64 0 0 1 .48 1.08Z"/><path d="M365.09 321a.65.65 0 0 1-1.11-.61l2.66-10.38a.65.65 0 0 1 1.27.33l-2.67 10.37c-.03.1-.08.2-.15.28ZM374.38 325.4c-.09.1-.2.16-.33.19l-10.04 2.4a.65.65 0 0 1-.3-1.27l10.04-2.4a.65.65 0 0 1 .79.49c.05.21-.01.43-.16.59Z"/><path d="M374.38 325.4a.65.65 0 0 1-.62.2.66.66 0 0 1-.5-.78l2.2-10.15a.66.66 0 1 1 1.3.27l-2.2 10.15a.63.63 0 0 1-.18.31Z"/></g><path d="m310 261.7-8.3-.89a.63.63 0 0 1-.51-.69.62.62 0 0 1 .64-.56l6.91.73-.13-10.43c.03-.32.3-.56.6-.56.32 0 .59.24.62.56l.17 11.83Z" fill="#fff" opacity=".28"/><path fill="#fff" d="M11 308h11v3H11zM11 313h11v3H11zM11 318h11v3H11zM11 332h11v3H11zM11 338h11v3H11zM46 266h11v3H46zM46 272h11v3H46zM46 290h11v3H46zM46 295h11v3H46zM46 312h11v3H46zM46 317h11v3H46zM46 331h11v3H46zM46 337h11v3H46z"/><path d="M261 88.1 53 107l-5-3.47a10.04 10.04 0 0 1 5.76-2.8l195.5-17.63c3.2-.43 6.46.51 8.92 2.6l2.82 2.4Z" fill="#81A4AC"/><path opacity=".2" d="m120 104-1.06 34.36S82.8 139.72 76.3 140c-6.52.27-2.01-6.47 2.06-21.5 2.25-8.29 1.88-9.4-.37-10.49l42.02-4ZM254 109.92c-.18 20.74-36.3 25.52-45.06 25.05-7.36-.4 6.56-25.87-5.94-38.34L251.74 92c1.25 3.3 2.35 8.82 2.25 17.92Z" fill="#2E3435"/><path d="M348 164v13.92c-4.22.76-14.92 17.55-22.74 30.25-4.37 7.1-7.84 12.93-8.79 13.97-.43.4-.93.69-1.48.87-5.92 2.27-24.73 2.16-17.27-17.32 1-2.52 2.3-4.92 3.87-7.13 13.06-18.75 45.55-34.4 45.55-34.4l.86-.16Z" fill="#FFAB01"/><path opacity=".35" d="M348 175.56v2.41c-4.22.76-14.92 17.36-22.74 29.93L322 209c.27-.53 17.52-34.73 23.48-33.99.85.1 1.7.29 2.52.55Z" fill="#F26002"/><path d="M85.85 53.21c2.07-4.12 3.57-9.41 0-9.25-3.56.15-4.39-5.6-10.07-1.45-5.69 4.16-8.46 2.26-8.78 8.2-.33 5.92-7.73 3.97-9.34 11.84-1.6 7.86-15.3 10.28-13.52 17.02 1.77 6.73-9.01 7.37-7.24 12.19 1.77 4.81-14.81 6.9-6.6 10.42 8.2 3.52 18.35-5.6 24.3-3.05 5.96 2.56 10.14-7.21 15.94-7.06 5.8.16 4.8-13.62 8.14-21.7 3.33-8.06 7.17-17.16 7.17-17.16ZM199.84 46.88c-2.45.6-6.07-1.11-5.78-2.14.3-1.03-3.5-6.91-1.46-7.06 2.04-.15 2.1-6.19 5.2-4.83 3.07 1.35 7.2-2.06 7.5-.2.31 1.86 5.62-3.12 4.56 1.1-1.06 4.22-.1 9.22-1.95 9.22-1.86 0-3.02 1.79-3.02 1.79l-5.05 2.12Z" fill="#08173A"/><path d="M320.93 354.7c-2.3 5.18-160.98 30.48-209.4 38.1a17.27 17.27 0 0 1-18.83-10.97c-12.51-33.19-44.37-118.21-44.64-123.7-.13-1.56-.05-3.14.24-4.7.8-3.56 3.44-5.8 10.18-9.63 0 0 200.85-22.2 206.1-22.8 5.27-.6 55.8 119.5 55.8 119.5s3.25 8.09.55 14.2Z" fill="#2E3435"/><path d="m65.9 253.89 188.78-26.81a7.85 7.85 0 0 1 8.15 4.28c10.65 21.45 51 103.88 44.46 109.05-7.06 5.57-157.07 29.46-196.72 35.5a7.7 7.7 0 0 1-8.42-4.98c-7.72-21.42-32.78-88.15-40.78-109.44a5.64 5.64 0 0 1 4.52-7.6Z" fill="#686868"/><path d="M525 336.76 351.06 324 298 326.73 469.58 341l55.42-4.24Z" fill="url(#a)"/><path d="M404.96 335.73v-48.56l-56.5-1.17-.01 45.12-50.45-4.11v43.02L470 395v-53.97l-65.04-5.3Z" fill="url(#b)"/><path d="m405 287.52 48-.52-.25 44.9L405 336v-48.48Z" fill="url(#c)"/><path d="M525 337v49.31L470 395v-53.85l55-4.15Z" fill="url(#d)"/><path d="m348 286 56.45 1 48.55-.44-56.62-.5L348 286Z" fill="#F7F7F7"/><path d="m404 335.35 48.28-4.35 46.72 3.6-52.6 4.4-42.4-3.65Z" fill="url(#e)" style="mix-blend-mode:multiply"/><path d="M405 336v-25.65l48-3.35-.14 24.9L405 336Z" fill="url(#f)" style="mix-blend-mode:multiply"/><path d="M128 27.6 96 24v17.49l14.54 1.17 5.27 7.34 2.4-6.65 9.79.76v-16.5Z" fill="#2DACC1"/><path d="M96 24.16 98.03 23l7.87 7.32 10.46 12.03L118 50h-2.03l-5.53-15.61-7.64-.66-6.8-9.57Z" fill="#2DACC1"/><path d="M130 26.58 98 23v18.54l14.55 1.17L117.8 50l2.4-6.6 9.79.75V26.58Z" fill="#4DD5FF"/><path d="M170 347.43 254.02 332l4.98 12.51L176.46 359 170 347.43Z" fill="#474545"/><path d="M68 238.66 89.6 236l2.4 6.32L70.16 245 68 238.66ZM230 219.62l17.1-1.62 2.9 6.94-17.02 2.06-2.98-7.38Z" fill="#686868"/><path d="M104 392a17.25 17.25 0 0 1-11.22-10.45C80.25 348.32 48.33 263.19 48.06 257.7c-.13-1.57-.05-3.15.24-4.7l12.51 7.34 41.76 114.06L104 392Z" fill="#81A4AC"/><path d="m219.53 142.25-1.53 6.38 12 3.37-1.88-11-8.59 1.25Z" fill="#98E1ED"/><path d="M235.23 163.82c-3.64-.82-18.35-8.69-19.03-9.6-.31-.42-.21-1.66 0-2.84.22-1.34.56-2.62.56-2.62s.95-3.52 1.49-2.61c.54.9 6.34 4.82 7.4 2.35 1.06-2.48 6.34-3.13 6.2-1.3-.13 1.82 3.65 5.98 10 10.8a6.62 6.62 0 0 1 1.85 1.93c1.86 3.36-5.36 4.57-8.47 3.89Z" fill="#08173A"/><path d="m240.53 139.25-1.53 6.38 12 3.37-1.88-11-8.59 1.25Z" fill="#98E1ED"/><path d="M256.22 161c-5.23 0-6.03-5.38-10.91-5.38-2.26 0-7.79-3.87-8.12-4.32-.33-.45-.18-2.03.06-3.36.22-1.16.48-2.16.48-2.16s.95-3.55 1.49-2.63c.54.92 6.34 4.87 7.4 2.37 1.05-2.5 6.34-3.16 6.2-1.31-.13 1.84 3.65 6.04 10.01 10.9a6.4 6.4 0 0 1 1.98 2.16c1.4 3.03-5.48 3.73-8.6 3.73Z" fill="#08173A"/><path d="M254 129.47c0 5.74-.22 10.03-.5 11-.95 3.35-18.1 1.92-17.38 0 .24-.63.34-5.14.35-11 .04-11.65-.28-28.74-.6-31.89-.46-4.66-15.47-11.08-15.94-11.28.38.3 10.61 8.1 11.42 12.67.86 4.72 1.28 19.09 1.48 30.24.15 7.97.19 14.31.19 14.31s-19.53 4.29-19.53-1.74c0-2.83 1.79-12.74 1.9-22.97.12-10.56-1.56-21.47-8.85-25.28-.68-.35-1.38-.64-2.1-.86-17.14-5.08-13-10.23-13-16.64 0 0 26.1-1.7 29.9-.74 3.56.9 19.68 5.98 26.35 11.87.46.4.88.83 1.28 1.29 3.95 4.56 5.06 27.08 5.03 41.02Z" fill="#4C4BBC"/><path d="m192 76 1.8-21.8 9.28-4.2 9.02 3.58 6.9 21.39L192 76Z" fill="#B56586"/><path d="m213 63.7 7.05-.7L223 80.6l-6.94 1.4L213 63.7Z" fill="#565656"/><path d="M221.6 70.8s-3.2-6.4-3.62-2.6c-.42 3.82-1.45.66-3.2 4.77-1.74 4.1-.38 7.7 2.13 6.92l8.09-2.56-3.4-6.52Z" fill="#753323"/><path d="M211.36 72.47s1.67-7.04 2.64-3.45c1.5 5.6 2.6-.89 5.4 2.39 2.8 3.27 1.58 6.79-1.04 8.09-2.3 1.13-8.36 0-8.36 0l1.36-7.03Z" fill="#7E402F"/><path d="M193 54s-15.13 17.52-13.93 23.01c1.2 5.49 33.4 5.58 34.61 4.34 1.2-1.24-1.2-14.68-3.6-13.45-1.7.86-10.23 2.08-15.78 2.97-.79.13-1.59-.2-2.06-.85a2.1 2.1 0 0 1-.15-2.22c2.47-4.67 5.2-11.4 4.4-12.26-1.08-1.19-3.48-1.54-3.48-1.54ZM211.59 54S236 60.91 236 64.43c0 2.56-9.52 17.52-10.96 15.36-1.43-2.17-6.69-12.61-2.14-13.28 4.56-.67 6.96-2.11 3.6-2.36-3.34-.26-13.92-1.7-15.84-5.2-1.91-3.52.93-4.95.93-4.95Z" fill="#B56586"/><path d="M195.32 70c-.93 0-1.66-.08-2-.3-.95-.6.27-3.5 2.86-8.68.46-.91.82-1.64.98-2.02l.4.17c-.17.39-.53 1.12-1 2.05-1.14 2.28-3.8 7.61-3.02 8.11 1.12.7 8.34-.34 10.38-.76l.08.44c-.84.16-5.75.99-8.68.99ZM212.53 69c-.18-.74-.5-1.2-1-1.43-.75-.36-1.94-.15-3.4.16l-.13-.37c1.58-.33 2.87-.56 3.79-.11.6.28 1 .83 1.21 1.67l-.47.08Z" fill="#663149"/><path d="M199.01 52.6 200.4 42h3.15l1.45 9.93c.07.52-.15 1.03-.57 1.34l-1.77 1.31c-.94.68-2.23.52-2.97-.37l-.34-.44a1.56 1.56 0 0 1-.33-1.18Z" fill="#7E402F"/><ellipse cx="201.5" cy="45" rx="3.5" ry="4" fill="#7E402F"/><path d="M235.22 163.81c-3.64-.84-18.34-8.94-19.02-9.88-.31-.44-.21-1.71 0-2.93 3.63 2.16 17.7 10.47 19.06 10.47 1.52 0 6.18.86 8.44-1.66 1.85 3.46-5.37 4.7-8.48 4ZM256.2 161c-5.21 0-6.02-5.36-10.9-5.36-2.26 0-7.78-3.85-8.1-4.3-.34-.44-.2-2.02.05-3.34 1.13 1 5.56 4.83 7.25 4.83 1.94 0 4.5 1.09 6.09 2.49 1.6 1.4 4.86 4.34 6.56 3.87 1.41-.4 5.6-.46 7.67-1.9 1.38 3-5.5 3.71-8.61 3.71Z" fill="#DCFFFF"/><path d="M88.12 148.37c-.39 2.47-3.97 3.72-.86 5.77 3.12 2.04 14.2 9.13 13.73 6.13-.47-3-8.3-7-7.97-11.2.35-4.2-4.9-.7-4.9-.7ZM106.17 147.05c-1.6 4.92-3.22 5.38-1.3 7.1 1.92 1.73 11.43 9.87 9.98 5.65-1.44-4.23-5.56-8.07-5.36-10.69.2-2.62-3.32-2.06-3.32-2.06Z" fill="#F58A41"/><path d="M115.99 91.6c-.55 3.52-24.4 4.1-27.72-4.75-3.32-8.86-5.22-22.23-3.78-23.87 1.44-1.64 2-1.98 2-1.98s.5 1.7 1.25 4.14c1.8 5.8 5.15 15.7 7.07 16.37 1.28.46 6.25 1.96 11.05 3.81h.03c5.28 2.01 10.39 4.43 10.1 6.28Z" fill="#A44322"/><path d="M121.37 145.53c-.43 6.88-30.47 6.96-39.65 1.98a6.88 6.88 0 0 1-1.91-1.44c-5.53-6.38 4.56-25.75 4.56-33.84 0-5.83-8.6-6.63-15.17-10.69-2.59-1.59-4.82-3.66-6.12-6.74-2.9-6.84.33-19.14 6.34-27.39a26.88 26.88 0 0 1 4.69-5.05c2.58-2.09 5.41-3.36 8.34-3.36 7.44 0 5.77 11.57 4.84 16.09-.63 3.06-6.1 3.81-7.57 5.87-.23.31-.36.69-.36 1.08 0 .22.03.45.1.67.07.27.19.53.33.77 1.03 1.8 3.72 3.47 6.18 4.54 2.46 1.08 8.01.55 14.12.54 9.68 0 20.75 1.24 23.2 12.1 2.21 9.75-1.43 37.4-1.92 44.87Z" fill="#F26002"/><path d="m85 50.46-.06 10.02c0 .52-.29 1-.74 1.24l-1.9 1.04a2.1 2.1 0 0 1-2.82-.82l-.26-.46a1.58 1.58 0 0 1-.16-1.23l1.7-6.03 1.2-4.22 3.04.46Z" fill="#99482C"/><path d="M76 65.35a3.67 3.67 0 0 1-2.82 3.54A3.75 3.75 0 0 1 69 67.07 27.18 27.18 0 0 1 73.78 62 3.65 3.65 0 0 1 76 65.35Z" fill="#CC4509"/><path d="M62 302v77.84L99 390l-37-88Z" fill="#294449"/><path opacity=".58" d="M81 282.65 85.62 294 97 292.05 92.02 281 81 282.65Z" fill="#474545"/><path d="M94 280.65 98.62 292l11.38-1.94-4.98-11.06L94 280.65Z" fill="#81A4AC"/><path opacity=".58" d="m107 278.65 4.62 11.35 11.38-1.95-4.98-11.05-11.02 1.65Z" fill="#474545"/><path d="m125 288.65 4.62 11.35 11.38-1.94-4.98-11.06-11.02 1.65ZM167 300.65l4.62 11.35 11.38-1.94-4.98-11.06-11.02 1.65Z" fill="#474545"/><path d="m199 275.65 4.62 11.35 11.38-1.95-4.98-11.05-11.02 1.65Z" fill="#81A4AC"/><path d="m212 273.65 4.62 11.35 11.38-1.94-4.98-11.06-11.02 1.65Z" fill="#474545"/><path opacity=".58" d="m225 271.65 4.62 11.35 11.38-1.95-4.98-11.05-11.02 1.65Z" fill="#474545"/><path d="m242 233.65 4.62 11.35 11.38-1.94-4.98-11.06-11.02 1.65Z" fill="#474545"/><path opacity=".4" d="m228 234.65 4.62 11.35 11.38-1.95-4.98-11.05-11.02 1.65Z" fill="#81A4AC"/><path opacity=".56" d="M71 258.65 75.62 270 87 268.06 82.02 257 71 258.65Z" fill="#474545"/><path d="M429.55 287h-58.11c-6.32 0-11.44-5.1-11.44-11.4V118.73c0-6 4.66-10.96 10.66-11.37l49.5-4.13s6.77-.2 8.63-.22c6.62-.05 12.21 5.2 12.21 11.8v160.8a11.45 11.45 0 0 1-11.45 11.4Z" fill="#294449"/><path d="M420.2 286h-63.4c-4.86 0-8.8-3.9-8.8-8.73v-161.3c0-4.6 3.6-8.4 8.21-8.71l63.4-4.24a8.83 8.83 0 0 1 6.6 2.33 8.7 8.7 0 0 1 2.79 6.38v165.54a8.76 8.76 0 0 1-8.8 8.73Z" fill="#81A4AC"/><path d="M425 112.36v166.29c0 2.4-1.94 4.35-4.32 4.35h-64.36a4.34 4.34 0 0 1-4.32-4.35V116.9a4.34 4.34 0 0 1 4.02-4.34l64.35-4.56a4.33 4.33 0 0 1 4.63 4.35Z" fill="#30575E"/><path d="M425 117v161.65c0 2.4-1.94 4.35-4.33 4.35H368V125.07a4.34 4.34 0 0 1 4.03-4.33L425 117Z" fill="#4F4B43"/><rect x="433" y="132" width="3" height="28" rx="1.5" fill="#022543"/><path d="M421 136.14 356 140v-16.14l65-3.86v16.14Z" fill="#FFE4C7"/><circle cx="396.5" cy="110.5" r="1.5" fill="#022543"/><path d="M414 174.02c-8.27 11.33-43.17 26.84-54 30.98v-9.74c11.72-5.84 31.1-17.69 34.89-22.26l19.11 1.02Z" fill="#B5B5B5"/><path d="m417.96 230.94-2.66 12.42s1.48 1.2 2.21 6.75c.38 2.8-.25 13-.97 22.4-.3 3.8-.6 7.49-.87 10.49h-8.64c-1.77-15.37-4.55-50.22-3.95-57H419l-1.04 4.94ZM425 226v39c-1.2-15.77-2.29-34.29-1.93-39H425Z" fill="#F58A41"/><path d="M425 155v14l-2-2.51s.85-8.44 2-11.49Z" fill="#7C7C7C"/><path d="M405.99 186.23c-.4 6.44-11.37 13.57-14.72 17.08-1.4 1.47-1.97.4-2.46-1.4-.68-2.48-1.22-6.33-3.66-6.57-4.2-.42-5.15-15.53-5.15-15.53s.03-5.73 2.82-10.86c2.79-5.14 4.23 1.7 8.22 0 3.98-1.71 8.3 2.27 8.3 2.27s4.78 5.8 6.24 11.44c.32 1.16.46 2.36.4 3.57Z" fill="#4668DC"/><path d="M405.99 185.94c-.4 6.55-11.25 13.79-14.56 17.36-1.39 1.5-1.95.4-2.43-1.42 3.4-2 11.68-7.22 11.74-10.37.08-3.96 1.8-9.3 2.84-9.5.68-.04 1.37.07 2 .31.32 1.18.46 2.4.41 3.62Z" fill="#3D61B2"/><path d="M417.72 197.23s2.06 4.51-5 2.02c-7.05-2.49-30.16-7.05-33-19.38-.43 1.52-6.9 12.42-7.45 14.72-.03.12-21.27-.52-21.27-.52v-30.66c8.82-1.53 31.17-4.18 35.84 7.12 4.14 10.03 30.88 26.7 30.88 26.7Z" fill="#FFAB01"/><path d="M425 165v23.9c-4.93.32-15.03 1.1-15.03 1.1l-.05-.09c-.36-.62-2.5-4.3-4.7-8.33-2.76-5.01-5.61-10.52-5.18-11.04.69-.8 17.01-2.15 24.96-5.54Z" fill="#4668DC"/><path d="M423.77 153.3c.39-1.15.2-2.41-.49-3.4a3.77 3.77 0 0 0-1.23-3.43 3.7 3.7 0 0 0-4.3-3.05 3.65 3.65 0 0 0-4.2-1.4 1.49 1.49 0 0 0-1.72-.14 3.63 3.63 0 0 0-5.04.28 1.51 1.51 0 0 0-1.63-.2c-.53.27-.87.82-.87 1.42v.07a3.73 3.73 0 0 0-2.8 4.23 1.57 1.57 0 0 0-.56 1.93 3.78 3.78 0 0 0-.37 4.47 3.77 3.77 0 0 0 .75 4.83l.14.25v.14a9.82 9.82 0 0 0 5.94 5.22c.23 0 .47-.02.7-.07.67.57 1.5.88 2.38.88h.32a3.6 3.6 0 0 0 3.64.32h.06c.52 0 1.02-.11 1.5-.32h.3c1.61 0 3-1.16 3.3-2.76a3.75 3.75 0 0 0 1.78-2.24 3.75 3.75 0 0 0 1.97-3.32v-.36a3.8 3.8 0 0 0 .46-3.36l-.03.01Z" fill="#08173A"/><path d="M420 169.3a12.36 12.36 0 0 1-5 2.57c-2.15.56-5-.89-5-.89l.64-9.03.34-4.62 1.14-.38L415 156l5 13.3Z" fill="#F58A41"/><path d="M368 169.85a12.1 12.1 0 0 1-5.17 2.1c-2.17.36-4.83-1.38-4.83-1.38l1.54-9.12.76-4.51.29-.06 3.8-.88 3.61 13.85Z" fill="#873C29"/><path d="M385 283h-21.1l-2.6-50.07-1.35-25.7-3.51 23.32-4.44 29.47V194.2l5.36-.16 1.49-.04h14.18l.26 7.9.21 6.6 4.88 31.6L385 283Z" fill="#F26002"/><path d="M435.36 171.77c-.7 1.2-1.44 1.59-2.4.87-3.42-2.56-2.64-17.47 4.54-11.04 1.37 1.24-.3 7.06-2.14 10.17Z" fill="#474545"/><path d="M485.66 148.28c-.45.36-1.54 1.11-3.12 2.16l-.05.03-.3.2-.08.05-.93.58c-6.63 4.1-19.05 9.73-30.82 14.54a448.32 448.32 0 0 1-13.59 5.3c-.86.31-2.42.6-3.23.86-2.2-3.23-1.67-5.79-.68-8.96l.06-.04c10.03-5.72 31.67-18.8 34.93-26.9 2.56-6.35 3.84-6.03 3.84-3.04 0 3 10.62 2.92 12.04 4s5.3 8.54 1.93 11.22Z" fill="#F58A41"/><path d="M473.08 136.88c-2 2.19-2.34 3.5-1.92 6.36.41 2.85 4.73 6.76 4.73 6.76l6.11-15-8.92 1.88Z" fill="#F4AB7A"/><path d="M471 107c2.14 1.37 14.03 5.53 17 5.5-1.58 4.8-5.27 39.17-4.79 41.83-4.07 1.69-7.66-.17-9.58-1.53 0-3.29-2.63-45.8-2.63-45.8Z" fill="#A9E085"/><path d="M467 108c2.35 1.13 14.96 4 18 3.66-1.09 4.95-1.08 39.66-.3 42.26-3.97 2.12-7.86.66-9.97-.49C474.37 150.16 467 108 467 108Z" fill="#C6F9A5"/><path d="M485.4 149.05c-.45.37-1.52 1.1-3.05 2.14l-.06.03-.28.19-.08.05c-1.54.99-3.42.6-4.97-.96-.51-.51-.57-1.54-1-2.17-.31-.5-1.02-1.02-1.25-1.54-.28-.62-.07-1.25-.2-1.85-.12-.6-.58-1.24-.5-1.79.57-3.84 4.84-5.4 9.52-5.12.35.27 1.23.63 1.73 1.51.3.54.23 1.45.5 2.14.31.76.94 1.28 1.1 2.1.4 1.92-.09 4.16-1.47 5.27Z" fill="#F58A41"/><path d="M316 214.94c.01 2.76-.48 5.5-1.45 8.06-5.78 2.29-24.15 2.18-16.87-17.45a34.14 34.14 0 0 1 3.78-7.2c.8-.23 1.63-.35 2.47-.35 6.67.02 12.07 7.6 12.07 16.94Z" fill="#6D2E0F"/><path d="M295 186.96 311.34 227l16.48-7.04 2.18-1.42L311.34 174l-1.97 1.22L295 186.96Z" fill="#2B2B2B"/><path d="M292 187.96 308.34 228l18.66-8.46L308.34 175 292 187.96Z" fill="#565656"/><path d="M294.03 199.42c-.49 4.78 5.68 23.3 11.68 21.45 6-1.86 17.55-8.9 16.18-13.47-1.38-4.57-2.92-12.81-9.23-9.72-6.32 3.09-10.17 8.14-12 5.25-3.6-5.6-6.47-5.35-6.63-3.51Z" fill="#873C29"/><path d="m306.14 181.34 2.57 5.67a1.68 1.68 0 0 0 2.3.81l.07-.03c.8-.4 1.14-1.37.77-2.18l-2.64-5.64a1.7 1.7 0 0 0-2.5-.66 1.66 1.66 0 0 0-.57 2.03Z" fill="#2B2B2B"/><circle cx="308" cy="181" r="1" fill="#B5B5B5"/><path d="m312 180.4 3.16 7.6.84-.43-3.33-7.57-.67.4Z" fill="#B5B5B5"/><path d="M303.7 153 289 163.6l4.25 9.4 5.84-3.87 3.77 2.57v-5.15l5.14-3.3-4.3-10.25Z" fill="#F24738"/><path d="m302.5 172.25-1.2.75-3.3-7.64 5-4.36-3.1 5.33 2.6 5.91Z" fill="#F24738"/><path d="M302.7 154 288 164.6l4.25 9.4 5.85-3.87 3.76 2.57v-5.15l5.14-3.3-4.3-10.25Z" fill="#F90"/><path d="m382 72.6 32-3.6v17.49l-14.54 1.17L394.2 95l-2.41-6.65-9.79.76V72.6Z" fill="#F24738"/><path d="M414 69.17 411.97 68l-7.87 7.32-10.46 12.04L392 95h2.03l5.53-15.61 7.64-.66 6.8-9.56Z" fill="#F24738"/><path d="M412 68v18.54l-14.54 1.17L392.2 95l-2.41-6.6-1.47.1-8.32.65V71.58l26.14-2.92L412 68Z" fill="#F90"/><path opacity=".17" d="m406 68-18.4 20.34-8.6.66V71l27-3Z" fill="#fff"/><path d="m516 165.6 32-3.6v17.49l-14.54 1.17-5.27 7.34-2.4-6.65-9.79.76v-16.5Z" fill="#F24738"/><path d="m548 162.16-2.03-1.16-7.87 7.32-10.46 12.03L526 188h2.03l5.53-15.61 7.64-.65 6.8-9.58Z" fill="#F24738"/><path d="M546 161v18.54l-14.54 1.17-5.26 7.29-2.41-6.6-1.47.1-8.32.65v-17.57l26.14-2.92L546 161Z" fill="#F90"/><path opacity=".17" d="m541 161-18.4 20.34-8.6.66v-18l27-3Z" fill="#fff"/><path d="m311.56 171.47.79-3.64.42.09-.79 3.64-.42-.1ZM312.6 172.63l3.16-1.98.22.37-3.15 1.97-.23-.37ZM308.75 167.95l.43-.06.49 3.7-.43.05-.49-3.7Z" fill="#494949"/><path d="M378 240c-1.73-.33-6.3-9.87-7.71-13.43-1.76-4.4 0-9.01-2.65-17.75-2.17-7.17 1.59-6.36 5.02-6.82l.22 6.56L378 240ZM352 195h19v2h-19zM371.65 244c-.29-2.87-6.14-18.95-7.85-8.52s-.35 28.34 1.07 28.5c1.43.16 8.8 0 6.78-19.98Z" fill="#EF8448"/><path d="M362.87 231.12c-.48.69-1.03 1.32-1.64 1.88l-1.36-25.89-3.55 23.49c-1.23-8.88 1.37-26.12 2.76-25.59 1.58.61 7.33 21.17 3.79 26.11Z" fill="#B24204"/><g opacity=".5" fill="#fff"><path d="M365.48 183.75a.43.43 0 0 1-.2-.8c.18-.11.04-.7-.08-1.23-.23-1.02-.58-2.58.97-3.25.22-.09.46.01.56.23.04.1.05.22 0 .33-.04.1-.12.2-.22.24-.86.36-.74 1.1-.48 2.26.2.81.4 1.72-.34 2.15a.43.43 0 0 1-.21.07ZM372.96 176.06c-.2 0-.39-.04-.57-.12-.93-.4-1.54-1.76-1.3-2.9.14-.68.48-.86.74-.92.53-.1 1.03.38 1.31.86.3.48.32.8.13 1.05a.42.42 0 0 1-.54.13.43.43 0 0 1-.2-.52c-.11-.27-.3-.5-.53-.66a.88.88 0 0 0-.08.24c-.15.72.26 1.7.81 1.94.34.14.69-.04 1.04-.55a.43.43 0 0 1 .39-.2c.15 0 .3.1.36.25s.04.31-.05.44c-.53.78-1.09.96-1.5.96ZM357.55 183a.85.85 0 0 1-.64-.3c-.28-.32-.64-1.12 0-2.97a.42.42 0 0 1 .74-.15c.1.12.12.3.06.44-.48 1.37-.29 1.95-.18 2.09v-.03c.07-.23.3-.36.53-.3.22.07.35.31.29.54a.9.9 0 0 1-.65.66.8.8 0 0 1-.15.02ZM391.32 183.75a.43.43 0 0 1-.4-.27c-.07-.18-.42-.32-.8-.48a4.16 4.16 0 0 1-2.09-1.54.43.43 0 0 1 .12-.6.43.43 0 0 1 .6.13c.42.57 1.02 1 1.7 1.21.54.22 1.06.43 1.28.97a.43.43 0 0 1-.24.56.55.55 0 0 1-.17.03ZM381.43 169.92h-.14c-.6-.07-1.19-.54-1.77-1.42a.43.43 0 0 1 .13-.6c.2-.12.45-.07.59.12.58.9 1 1.03 1.14 1.05.14 0 .28-.05.37-.16a.42.42 0 0 1 .6 0c.17.17.17.44 0 .6-.24.27-.57.41-.92.41ZM401.02 191.78a.84.84 0 0 1-.58-.2 1.3 1.3 0 0 1-.35-.99c-.04-.57-.1-.57-.31-.58a7.07 7.07 0 0 1-2.64-.8.43.43 0 0 1-.17-.57c.11-.21.37-.3.58-.18.71.37 1.49.6 2.29.68 1.01.07 1.07.97 1.1 1.4 0 .13.01.25.05.38h.1c.12-.02.23.01.32.08a.43.43 0 0 1-.2.77h-.2ZM364.93 190.15c-.5-.02-1-.17-1.42-.43-.5-.27-.7-.34-.98-.17a.42.42 0 0 1-.58-.14.43.43 0 0 1 .14-.59c.72-.45 1.33-.12 1.83.14.4.3.9.4 1.38.3.23-.07.47.07.53.3a.43.43 0 0 1-.3.53c-.2.05-.4.07-.6.06ZM354.46 172.47a.43.43 0 0 1-.42-.4l-.07-.04c-.37-.25-1.15-.78-.54-2.33a.43.43 0 0 1 .55-.24c.22.08.33.33.24.56-.35.9-.08 1.08.22 1.29.34.14.52.5.43.86a.43.43 0 0 1-.41.3ZM374.67 165.48a.42.42 0 0 1-.25-.08l-.55-.4-.16.1a1.4 1.4 0 0 1-1.84-.11.43.43 0 0 1-.07-.6.42.42 0 0 1 .6-.08c.43.34.58.24.85.06a.92.92 0 0 1 1.1-.07l.56.4a.43.43 0 0 1-.25.78h.01ZM354.04 165.3c-.2 0-.39-.03-.57-.1a.43.43 0 0 1-.26-.34.43.43 0 0 1 .16-.4c.12-.1.28-.12.42-.06.38.08.78 0 1.1-.22.13-.08.3-.08.43 0a.44.44 0 0 1 0 .76 2.6 2.6 0 0 1-1.28.35Z"/></g><g opacity=".74" fill="#fff"><path d="M344.69 171.9h-.1l.05-.43c.19.02.26-.1.4-.48.13-.4.3-.88.89-.7l-.1.43c-.2-.05-.25 0-.4.44-.1.28-.28.74-.75.74ZM333.24 177.39l-.15-.4.31-.13a2 2 0 0 0 1.53-1.68l.42.1c-.36 1.46-1.09 1.73-1.79 1.99l-.32.12ZM328.68 183.91c-.48-.08-.89-.38-1.11-.82a1.15 1.15 0 0 1-.1-1.26l.34.27c-.11.15-.06.43.12.76.19.33.58.65.8.61.2-.04.25-.32.28-.48l.43.08c-.12.61-.43.79-.63.83a.5.5 0 0 1-.13.01ZM324.88 193.62a.52.52 0 0 1-.39-.15c-.5-.5.14-1.97.43-2.58l.37.2c-.58 1.2-.66 1.93-.52 2.07.06.05.25.04.63-.17l.2.38c-.22.14-.47.22-.72.25ZM319.44 188.1c-.69-.23-1.06-.55-1.13-.97-.13-.84 1.05-1.77 2.3-2.76l.58-.46.27.35-.6.46c-1.04.82-2.22 1.75-2.11 2.34.04.3.48.5.85.63l-.16.41Z"/></g><path d="m411 190.05-1.32.95c-.36-.65-2.5-4.48-4.68-8.67 0-2.02 2.57-1.23 4.05-.9 1.48.33 1.95 8.62 1.95 8.62Z" fill="#3D61B2"/><path d="M364 159.14c-.24 1.45-4.79 2.8-5 2.86l.8-3.94.3-.06c1.9.07 4.03.31 3.9 1.14Z" fill="#7E2F1D"/><path d="M358.9 155c-.81-.83-.9-2.3-.5-2.78.41-.48-1.2-1.54.14-2.1 1.33-.57 1.08-2.03 1.97-1.95.9.07 1.94-.41 2.51 0 .57.4 1.3-.41 1.54.81.23 1.22 1.2.55 1.13 1.86-.08 1.3.74 1.47 0 2.44a7.52 7.52 0 0 1-2.17 1.72h-4.62Z" fill="#08173A"/><ellipse cx="362" cy="155" rx="3" ry="5" fill="#913722"/><path opacity=".44" d="m414 158.7-3 3.3.3-4.62 1.04-.38 1.66 1.7Z" fill="#F26002"/><path d="M416 155a6.48 6.48 0 0 1-1.26 4.07l-.08.1a2.2 2.2 0 0 1-1.66.84c-1.66-.01-3-2.24-3-5.01 0-2.77 1.34-5 3-5 .75.06 1.44.46 1.84 1.09a6.62 6.62 0 0 1 1.16 3.9Z" fill="#F26002"/><ellipse cx="413" cy="151.5" rx="2" ry="1.5" fill="#08173A"/><path d="M415 159c.6-1.05.46-5.73.1-8 .62 1.16.93 2.53.9 3.92.04 1.46-.31 2.89-1 4.08Z" fill="#F58A41"/><path d="M464 142c2.44-2.86 4.47-5.92 5-8" stroke="#F26002"/><path opacity=".44" d="M470 131.84c.44-.53 1.08-1.82 1.44.5L472 136" fill="#F26002"/><path d="M477.04 139c-1.51.77-5.14 3.1-3.72 4.54 1.43 1.44 4.18-.94 4.68-1.16M484 148.66c-2.34 1.9-3.25 2.53-3.82 2.3-.58-.24 1.55-3.45 1.55-3.45-3.57 2.58-5.53 3.76-5.36 2.4.16-1.37.4-2.4 2.93-4.35-5.12 3.67-6.08 1.94-4.77.28 1.3-1.66 4.03-3.84 4.03-3.84M483 137.85c-1.34-.04-2.68.06-4 .3" stroke="#CE4A00"/><path opacity=".44" d="M481 152c-6.67 3.94-19.16 9.37-31 14 8.42-4.85 27.78-13.8 27.78-13.8l3.22-.2Z" fill="#F26002"/><path d="M446 159c.73 2.67 1 4.35 1 5" stroke="#F26002"/><path d="M469.08 161c-.2 0-.4-.05-.58-.12-2.19-.8-8.34-12.2-8.5-17.88h.44c.16 5.75 6.4 16.84 8.2 17.5.34.12.58.12.7 0 .4-.37.12-1.75-.15-2.53l.44-.14c.08.23.76 2.3.05 2.95a.82.82 0 0 1-.6.22Z" fill="#4F4F4F"/><path opacity=".79" d="M417.9 249.72c.33 2.79-.22 12.93-.84 22.28-.05-2.58-.18-11.04 0-15.7.21-5.56-1.06-13.3-1.06-13.3s1.27 1.2 1.9 6.72ZM418 231l-3 12 .84-12H418Z" fill="#F26002"/><path d="M425 189v43.74l-3.48.68s-6.86-1.03-10.21.82c-1.75.98-5.2.93-8.28.3-2.77-.57-5.25-1.6-5.93-2.78-1.45-2.48 2.28-3.72-.73-7.44-3-3.72 13.12-34.22 13.12-34.22l3.25-.23L425 189Z" fill="#045866"/><path opacity=".66" d="M402.89 225.37c.19 3.2.2 6.42.07 9.63-2.74-.57-5.2-1.62-5.88-2.8-1.43-2.5 2.27-3.75-.71-7.5-2.98-3.74 12.99-34.47 12.99-34.47l3.2-.23.44.67s-10.47 29.98-10.11 34.7Z" fill="#03454C"/><path d="M406 242.96c1.37.3 3.13-1.15 4-.94" stroke="#F26002"/><path d="M315.93 197c.9.62-7.08 8.34-9.93 10M319 200c-.54.79-6.12 6.74-9 9M320.95 203c.76 2.31-6.92 9.69-7.95 10M315 216c1.58-1.52 7.4-5.45 6.98-7" stroke="#542321"/><ellipse cx="84" cy="72" rx="1" ry="2" fill="#FFAB01"/><ellipse cx="73" cy="77.5" rx="1" ry="2.5" fill="#FFAB01"/><circle cx="85.5" cy="98.5" r="1.5" fill="#FFAB01"/><circle cx="113" cy="103" r="4" fill="#FFAB01"/><ellipse cx="91.5" cy="140" rx="3.5" ry="5" fill="#FFAB01"/><circle cx="115.5" cy="138.5" r="3.5" fill="#FFAB01"/><ellipse cx="97" cy="120" rx="3" ry="6" fill="#FFAB01"/><ellipse cx="118" cy="118" rx="1" ry="2" fill="#FFAB01"/><circle cx="69.5" cy="91.5" r="1.5" fill="#FFAB01"/><path opacity=".64" d="M84.85 128.47c-1.2 3.84-3.07 19.53-3.07 19.53a7.03 7.03 0 0 1-1.96-1.44c-5.63-6.4 4.66-25.77 4.66-33.87 0-5.82-8.78-6.63-15.48-10.69 5.08.07 15.33 1.76 17.9 5.66 2.95 4.5-.84 16.97-2.05 20.81Z" fill="#CC4509"/><path d="M79.63 82.21a3 3 0 0 0 .1.76c-2.03.35-4.63-2.38-4.63-2.38s-.66-3.16 1.4-.57c1.02 1.27 2.38 1.29 3.5.97a2.2 2.2 0 0 0-.37 1.22Z" fill="#CC4509"/><path d="M100 89.04c-5.54 1-15.31 1.76-17.38-.62A14.3 14.3 0 0 1 80 84c1.02 1.78 3.67 3.44 6.09 4.5 2.42 1.07 7.91.55 13.91.54Z" fill="#EF681D"/><path opacity=".52" d="M84 55.37 79 60l1.58-6L84 55.37Z" fill="#7D2A0F"/><ellipse cx="82.55" cy="52.7" rx="3.96" ry="3.42" transform="rotate(-81.35 82.55 52.7)" fill="#A44322"/><path opacity=".33" d="M106 86c-.74-.16-12.52-2.8-13.79-2.98C90.95 82.85 87 66.1 87 66.1l.34-.09c1.86 5.75 5.3 15.57 7.28 16.24 1.33.46 6.44 1.95 11.38 3.76Z" fill="#7D2A0F"/><path d="M71.96 68C50.46 61.09 4.1 21.23 4.59 18.34a48.64 48.64 0 0 1 2.06-7.73C7.13 9.32-9.65-3.1 8.34 7.17-4.5-7.24 11.3 4.26 13.3 5.87c5.31 4.31 4.1-7.62 7.24-.82 5.48 11.87 42.27 48.68 52.33 56.97 7.54 6.21-.91 5.98-.91 5.98Z" fill="#99482C"/><path d="M5 17.96s2.35 3.3 4.45 4c2.1.7-3.28-7.1-2.39-6.68.89.4 3.2 4.62 5.54 5.04 2.33.42-6.27-10.32-4.8-9.24" stroke="#494949"/><path d="M237.29 129c.04-11.6-.28-28.62-.59-31.76-.46-4.65-15.24-11.04-15.7-11.24.45.1 17.65 4.83 18.16 8.45 2.35 17.27-.89 34.34-1.87 34.55Z" fill="#303082"/><path d="M255 129a225 225 0 0 1-3.44-21.83c-.92-9.94-2.08-8.93-6.38-11.91-3.2-2.23.86-5 3.2-8.26.47.4.92.82 1.34 1.28 4.15 4.5 5.31 26.88 5.28 40.72Z" fill="#4141A5"/><path d="M215.54 118c1.03-7.09-1.5-21.23-8.54-25 2.1-.18 7.99 3.75 8.6 6.36.61 2.61.47 18.2-.06 18.64Z" fill="#303082"/><path d="M467 338.24a13.74 13.74 0 0 1 .87-3.58l5.71-1.66s.73 2.45 1.26 4.69l.14.57c.52 2.35-8.22 2.3-7.98-.02Z" fill="#474545"/><path d="m470.15 336.87-.12.37a.58.58 0 0 0 .55.76h.84a.58.58 0 0 0 .57-.66l-.18-1.34-1.66.87Z" fill="#5B5B5B"/><path d="M467 333.02s-1.29 1.61-.94 2.88c.35 1.28 10.94 1.38 10.94.63V330l-10 3.02Z" fill="#7C7C7C"/><path d="m467 339.05.13-1.05c1.45.93 5.04 2.15 7.71.4l.14.65c.53 2.63-8.22 2.58-7.98 0Z" fill="#969696"/><path d="m486 338.24.13-.94c.14-.9.39-1.79.74-2.64l5.71-1.66s.73 2.45 1.26 4.69l.14.57c.52 2.35-8.22 2.3-7.98-.02Z" fill="#474545"/><path d="m489.15 336.87-.12.37a.58.58 0 0 0 .55.76h.84a.58.58 0 0 0 .57-.66l-.18-1.34-1.66.87Z" fill="#5B5B5B"/><path d="M486 333.02s-1.29 1.61-.94 2.88c.35 1.28 10.94 1.38 10.94.63V330l-10 3.02Z" fill="#7C7C7C"/><path d="m486 339.05.13-1.05c1.45.93 5.04 2.15 7.71.4l.14.65c.53 2.63-8.22 2.58-7.98 0Z" fill="#969696"/><path d="M440.2 235.68s-5.95 5.91-3.69 5.07c2.27-.84 4.4-3.24 3.69-1.27-.71 1.97-2.55 4.08-.85 3.38 1.7-.7 7.65-9.86 7.65-9.86l-6.8 2.68ZM524.55 207.03s5.1-7.15 2.9-5.88c-2.2 1.27-3.96 4.12-3.58 1.97.38-2.16.1-2.13-1.54-1.1-1.64 1.03-4.33 8.98-4.33 8.98l6.55-3.97Z" fill="#F26002"/><path d="M494 217.44c5.03 4.9 8.42 10.6 12 10.56 3.59-.04 19-14.66 20-15.72-3.05-2.5-9.89-8.75-11-9.57-2.08 3.97-8.04 15.92-8.76 14.25-.72-1.67-9.49-16.96-9.49-16.96L494 217.44ZM465.52 200c-7.27 0-28.52 33.1-28.52 33.1l10.03 7.9L468 207.09s-.72-7.09-2.48-7.09Z" fill="#045866"/><path d="M490.69 337c-7.41.03-15.6-.26-22.75-.64-5-.26-9.5-.57-12.86-.83-16.38-1.3-8.56 0-5.65-18.13 2.9-18.12 9.62-114.9 21.95-125.96 4.83-4.34 18.97 1.29 23.21 14.65 4.24 13.35 16.81 120.37 18.37 126.68.78 3.15-9.62 4.17-22.27 4.23Z" fill="#294449"/><path d="M458.24 205.22c-1.68 4.9 5.8 5.19 9.9 6.1 4.1.9 8.82 2.91 13.59.63 4.77-2.28 21.34-2.02 20.22-5.65-.83-2.6-8.14-13.99-13.77-22.43-2.2-3.31-2.01-8.68-4-9.8-6.45-3.62-7.66 2.4-10.69 10.56-4.08 11-15.25 20.6-15.25 20.6Z" fill="#A4D3F6"/><path d="M484 180c0 3.32-1.57 6-3.5 6s-3.5-2.68-3.5-6a8.73 8.73 0 0 1 .9-3.99c.64-1.23 1.57-2.01 2.61-2.01 1.04 0 2.01.8 2.65 2.09.58 1.22.86 2.56.84 3.91Z" fill="#F26002"/><path d="M483 175.76c-1.65.34-3.36.32-5-.06.61-1.04 1.5-1.7 2.48-1.7.99 0 1.91.68 2.52 1.76Z" fill="#fff"/><path d="M491 336a417 417 0 0 1-23-.64c1.74-8.04 3-16.17 3.8-24.36 1.42-14.33 2.04-13.2.3-33.83s4.33-15.48 5-27.52c.66-12.04 1.95-11.47.48-20.64a38.1 38.1 0 0 1 .87-16.27l2.07-6.74c-.27 1.02-1.64 7.23 3 12.53 5.07 5.8-.11 9.64.81 14.07.93 4.44-.92 19.65 1.97 25.96 2.9 6.3.57 28.1-.58 35.54-1.15 7.44 2.9 15.2.86 21.23-1.3 3.8 1.88 13.76 4.42 20.67Z" fill="#045866"/><path opacity=".32" d="M425 165.3 352 202v-85.14a4.33 4.33 0 0 1 4.02-4.32l64.35-4.53a4.33 4.33 0 0 1 4.38 2.87l.25 54.42Z" fill="#fff"/><path d="m370 109.35.23 3.64c.05.85.46 1.65 1.12 2.22.67.56 1.54.84 2.42.78l27.16-1.9a3.25 3.25 0 0 0 3.07-3.2V107l-34 2.35Z" fill="#81A4AC"/><path d="M374.68 112c-.37 0-.67-.22-.68-.5-.01-.29.27-.53.63-.54l17.67-.96c.24-.01.46.08.59.23.13.15.15.35.04.52a.68.68 0 0 1-.54.29l-17.65.96h-.06Z" fill="#022543"/><circle cx="397" cy="110" r="1" fill="#FFF9C2"/><path d="M123 30.2c-.45.2-.93.34-1.42.4.52-.31.9-.8 1.08-1.4-.48.3-1 .5-1.55.61a2.42 2.42 0 0 0-2.72-.63 2.52 2.52 0 0 0-1.55 2.36c0 .2.01.38.05.57a6.9 6.9 0 0 1-5.06-2.62 2.56 2.56 0 0 0 .75 3.37 2.42 2.42 0 0 1-1.1-.31v.02c0 1.2.82 2.23 1.97 2.47a2.37 2.37 0 0 1-1.11.04 2.5 2.5 0 0 0 2.3 1.75 4.86 4.86 0 0 1-3.64 1.04 6.8 6.8 0 0 0 3.77 1.13c4.52 0 7-3.84 7-7.17v-.33c.48-.35.9-.8 1.23-1.3Z" fill="#fff"/><path d="M481 115.06 470 113l3.07 18" stroke="#9ACC7A"/><ellipse cx="478" cy="129" rx="2" ry="3" fill="#A9E085"/><path fill-rule="evenodd" clip-rule="evenodd" d="M392.74 81.76 392.2 86l1.28.01.55-4.23h2.2l-.55 4.23h1.27l.55-4.23h2.02v-1.26h-1.83l.39-3.12H400v-1.27h-1.74l.56-4.12h-1.26l-.55 4.1h-2.22l.53-4.1h-1.23l-.55 4.1h-2.02v1.28h1.83l-.42 3.11H391v1.27h1.74Zm4.1-4.38-.42 3.11h-2.22l.42-3.11h2.21Z" fill="#F24738"/><path fill-rule="evenodd" clip-rule="evenodd" d="m392.74 81.76-.55 4.23 1.27.01.56-4.23h2.2l-.55 4.23h1.27l.55-4.23h2.02v-1.26h-1.82l.38-3.12H400v-1.27h-1.74l.55-4.12h-1.25l-.55 4.1h-2.22l.53-4.1h-1.23l-.55 4.1h-2.02v1.28h1.83l-.42 3.11H391v1.27h1.74Zm4.09-4.38-.42 3.11h-2.2l.41-3.11h2.21ZM534.35 166.81c.2.45.32.93.36 1.41.04.36.05.58.08 1.01l.1 1.42c.1 1.6.1 1.8.1 2.43.03.49-.04.98-.19 1.44a3 3 0 0 1-1.61 1.83c-.45.2-.93.32-1.42.36-.38.04-.6.05-1.1.08l-1.32.1c-1.6.1-1.8.1-2.43.1-.49.02-.97-.04-1.44-.18a3.04 3.04 0 0 1-1.83-1.62c-.2-.45-.32-.93-.36-1.42-.05-.46-.06-.69-.11-1.4l-.07-1.02c-.1-1.6-.1-1.8-.1-2.43-.03-.49.04-.98.19-1.45a2.93 2.93 0 0 1 1.62-1.83c.44-.2.92-.31 1.4-.35.46-.05.7-.06 1.41-.11l1.02-.07c1.6-.1 1.8-.1 2.43-.1.49-.02.98.04 1.45.18.8.26 1.47.85 1.82 1.62Zm-.55 7.39c.11-.36.16-.73.13-1.1v-.3c0-.43 0-.79-.08-2.08-.1-1.57-.12-1.76-.18-2.38a3.35 3.35 0 0 0-.27-1.08 1.92 1.92 0 0 0-1.18-1.05 3.3 3.3 0 0 0-1.1-.14c-.63.01-.81.02-2.38.11-1.58.1-1.76.11-2.38.18-.37.02-.74.11-1.08.26-.25.12-.47.28-.65.48-.2.2-.34.44-.42.7-.11.36-.16.74-.14 1.11.01.62.02.8.11 2.38.1 1.57.11 1.76.18 2.38.02.37.11.74.26 1.08.23.5.66.88 1.18 1.05.36.1.74.15 1.11.13.62 0 .8-.01 2.38-.1 1.57-.1 1.76-.11 2.38-.18.37-.03.74-.12 1.08-.27.5-.22.88-.66 1.05-1.18Z" fill="#fff"/><path fill-rule="evenodd" clip-rule="evenodd" d="M526.17 170.02a3 3 0 1 1 5.66 1.96 3 3 0 0 1-5.66-1.96Zm.9 1.1a1.94 1.94 0 1 0 3.87-.24 1.94 1.94 0 0 0-3.88.24Z" fill="#fff"/><path d="M533 167.47a.5.5 0 1 1-1 .06.5.5 0 0 1 1-.06Z" fill="#fff"/><path d="m516 165.6 32-3.6v17.49l-14.54 1.17-5.27 7.34-2.4-6.65-9.79.76v-16.5Z" fill="#F24738"/><path d="M546 161v18.54l-14.54 1.17-5.26 7.29-2.41-6.6-1.47.1-8.32.65v-17.57l26.14-2.92L546 161Z" fill="#F90"/><path fill-rule="evenodd" clip-rule="evenodd" d="M534.35 166.81c.2.45.32.93.36 1.41.04.36.05.58.08 1.01l.1 1.42c.1 1.6.1 1.8.1 2.43.03.49-.04.98-.19 1.44a3 3 0 0 1-1.61 1.83c-.45.2-.93.32-1.42.36-.38.04-.6.05-1.1.08l-1.32.1c-1.6.1-1.8.1-2.43.1-.49.02-.97-.04-1.44-.18a3.04 3.04 0 0 1-1.83-1.62c-.2-.45-.32-.93-.36-1.42-.05-.46-.06-.69-.11-1.4l-.07-1.02c-.1-1.6-.1-1.8-.1-2.43-.03-.49.04-.98.19-1.45a2.93 2.93 0 0 1 1.62-1.83c.44-.2.92-.31 1.4-.35.46-.05.7-.06 1.41-.11l1.02-.07c1.6-.1 1.8-.1 2.43-.1.49-.02.98.04 1.45.18.8.26 1.47.85 1.82 1.62Zm-.55 7.39c.11-.36.16-.73.13-1.1v-.3c0-.43 0-.79-.08-2.08-.1-1.57-.12-1.76-.18-2.38a3.35 3.35 0 0 0-.27-1.08 1.92 1.92 0 0 0-1.18-1.05 3.3 3.3 0 0 0-1.1-.14c-.63.01-.81.02-2.38.11-1.58.1-1.76.11-2.38.18-.37.02-.74.11-1.08.26-.25.12-.47.28-.65.48-.2.2-.34.44-.42.7-.11.36-.16.74-.14 1.11.01.62.02.8.11 2.38.1 1.57.11 1.76.18 2.38.02.37.11.74.26 1.08.23.5.66.88 1.18 1.05.36.1.74.15 1.11.13.62 0 .8-.01 2.38-.1 1.57-.1 1.76-.11 2.38-.18.37-.03.74-.12 1.08-.27.5-.22.88-.66 1.05-1.18Z" fill="#fff"/><path fill-rule="evenodd" clip-rule="evenodd" d="M526.17 170.02a3 3 0 1 1 5.66 1.96 3 3 0 0 1-5.66-1.96Zm.9 1.1a1.94 1.94 0 1 0 3.87-.24 1.94 1.94 0 0 0-3.88.24Z" fill="#fff"/><path d="M533 167.47a.5.5 0 1 1-1 .06.5.5 0 0 1 1-.06ZM299 162.1a1.35 1.35 0 0 0-1.74.66c-.07.15-.12.3-.15.47a1.5 1.5 0 0 0-.45-.18 1.29 1.29 0 0 0-.85.1c-.36.17-.62.48-.74.87-.12.4-.08.84.1 1.22.2.44.56.78 1 .96.53.23 1.1.42 1.66.56l.75.22c.07.03.15.03.21 0a.32.32 0 0 0 .15-.16l.32-.74c.26-.55.48-1.12.65-1.7.14-.47.12-.97-.07-1.41-.17-.39-.47-.7-.84-.86Z" fill="#fff"/><defs><linearGradient id="c" x1="394.35" y1="301.06" x2="419.39" y2="347" gradientUnits="userSpaceOnUse"><stop stop-color="#D4D4D4"/><stop offset=".09" stop-color="#D4D4D4"/><stop offset="1" stop-color="#D4D4D4"/></linearGradient><linearGradient id="d" x1="460.31" y1="350.82" x2="486.71" y2="399.07" gradientUnits="userSpaceOnUse"><stop stop-color="#C9C9C9"/><stop offset=".2" stop-color="#D3D3D3"/><stop offset=".56" stop-color="#DDD"/><stop offset="1" stop-color="#E0E0E0"/></linearGradient><linearGradient id="e" x1="409.25" y1="331.64" x2="409.26" y2="338.69" gradientUnits="userSpaceOnUse"><stop stop-color="#BFBFBF"/><stop offset=".23" stop-color="#D8D8D8"/><stop offset=".5" stop-color="#EDEDED"/><stop offset=".76" stop-color="#FBFBFB"/><stop offset="1" stop-color="#fff"/></linearGradient><linearGradient id="f" x1="413.26" y1="313.24" x2="414" y2="331.09" gradientUnits="userSpaceOnUse"><stop stop-color="#fff"/><stop offset=".37" stop-color="#FBFBFB"/><stop offset=".78" stop-color="#EEE"/><stop offset="1" stop-color="#E3E3E3"/></linearGradient><radialGradient id="a" cx="0" cy="0" r="1" gradientUnits="userSpaceOnUse" gradientTransform="matrix(193.308 0 0 14.4768 305.8 325.95)"><stop stop-color="#F5F5F5"/><stop offset=".25" stop-color="#F2F2F2"/><stop offset=".46" stop-color="#E8E8E8"/><stop offset=".63" stop-color="#D9D9D9"/><stop offset="1" stop-color="#F5F5F5"/></radialGradient><radialGradient id="b" cx="0" cy="0" r="1" gradientUnits="userSpaceOnUse" gradientTransform="matrix(166.617 0 0 105.588 348.78 286.52)"><stop stop-color="#D9D9D9"/><stop offset=".27" stop-color="#E8E8E8"/><stop offset=".6" stop-color="#F2F2F2"/><stop offset="1" stop-color="#F5F5F5"/></radialGradient></defs></svg>