<svg width="21" height="15" fill="none" xmlns="http://www.w3.org/2000/svg"><path fill-rule="evenodd" clip-rule="evenodd" d="M8.418 14.028c-.778.648-1.76.972-2.95.972-1.463 0-2.63-.44-3.498-1.32C1.1 12.8.667 11.506.667 9.793c0-1.574.24-2.94.72-4.098.48-1.157 1.063-2.118 1.749-2.881.686-.764 1.418-1.378 2.195-1.84C6.108.508 6.794.184 7.389 0L9.24 2.778c-1.098.509-1.99 1.18-2.675 2.014-.686.833-.983 1.852-.892 3.055 1.189-.231 2.138 0 2.847.695.708.694 1.063 1.643 1.063 2.847 0 1.111-.389 1.99-1.166 2.639Zm11.082 0c-.777.648-1.76.972-2.949.972-1.463 0-2.63-.44-3.498-1.32-.87-.88-1.304-2.175-1.304-3.888 0-1.574.24-2.94.72-4.098.48-1.157 1.064-2.118 1.75-2.881.686-.764 1.417-1.378 2.195-1.84C17.19.508 17.877.184 18.472 0l1.852 2.778c-1.098.509-1.99 1.18-2.676 2.014-.685.833-.983 1.852-.891 3.055 1.189-.231 2.138 0 2.846.695.71.694 1.064 1.643 1.064 2.847 0 1.111-.39 1.99-1.167 2.639Z" fill="#F0572D"/></svg>