<svg width="121" height="120" fill="none" xmlns="http://www.w3.org/2000/svg"><path d="M67.808 95.177c-23.335 0-42.319-18.983-42.319-42.319a42.11 42.11 0 0 1 9.037-26.108 42.266 42.266 0 0 0-16.21 33.281c0 23.336 18.984 42.319 42.32 42.319a42.266 42.266 0 0 0 33.28-16.21 42.11 42.11 0 0 1-26.108 9.037Z" fill="#EFB9C2"/><path d="M99.06 23.056a1.659 1.659 0 0 0-2.332-.053L84.365 34.724l-6.533-6.486a1.658 1.658 0 0 0-2.333 0 1.63 1.63 0 0 0 0 2.316l7.674 7.617c.634.629 1.657.64 2.305.025l13.528-12.825a1.629 1.629 0 0 0 .055-2.315ZM61.017 44.67c3.949.004 7.149 3.174 7.154 7.087 0 .915.748 1.657 1.673 1.657.924 0 1.673-.742 1.673-1.657-.007-5.103-3.744-9.45-8.827-10.27v-3.28c0-.915-.75-1.657-1.673-1.657-.925 0-1.673.742-1.673 1.657v3.28c-5.402.867-9.227 5.697-8.79 11.101.438 5.403 4.99 9.568 10.463 9.57 3.934 0 7.13 3.147 7.153 7.045.023 3.897-3.136 7.082-7.07 7.127-.028-.002-.055-.004-.083-.004-.028 0-.056.002-.084.004-3.916-.049-7.066-3.205-7.07-7.085 0-.916-.75-1.658-1.673-1.658-.925 0-1.673.742-1.673 1.658.006 5.102 3.742 9.45 8.827 10.268v3.68c0 .915.748 1.657 1.673 1.657.924 0 1.673-.742 1.673-1.657v-3.68c5.402-.863 9.229-5.695 8.791-11.099-.437-5.404-4.992-9.57-10.464-9.57a7.17 7.17 0 0 1-6.23-3.531 7.03 7.03 0 0 1 0-7.112 7.166 7.166 0 0 1 6.23-3.53v-.002Z" fill="#633185"/><path d="M97.566 42.785a1.676 1.676 0 0 0-.9 2.192 38.724 38.724 0 0 1 3 15.023c0 21.505-17.495 39-39 39-21.504 0-39-17.495-39-39s17.496-39 39-39c4.37-.006 8.711.725 12.839 2.163A1.674 1.674 0 1 0 74.608 20a42.241 42.241 0 0 0-13.941-2.35c-23.353 0-42.35 18.997-42.35 42.35s18.997 42.35 42.35 42.35c23.352 0 42.35-18.997 42.35-42.35a42.087 42.087 0 0 0-3.26-16.316 1.676 1.676 0 0 0-2.191-.899Z" fill="#F0572D"/></svg>