<svg width="38" height="38" fill="none" xmlns="http://www.w3.org/2000/svg"><path fill-rule="evenodd" clip-rule="evenodd" d="M17 23v-6l5 3-5 3Z" fill="#F04C1C"/><path fill-rule="evenodd" clip-rule="evenodd" d="M19 0C8.507 0 0 8.507 0 19s8.507 19 19 19 19-8.507 19-19S29.493 0 19 0Zm7.814 12.448c.86.246 1.538.972 1.768 1.894C29 16.013 29 19.5 29 19.5s0 3.486-.418 5.158c-.23.922-.908 1.648-1.768 1.894C25.254 27 19 27 19 27s-6.254 0-7.814-.448c-.86-.246-1.538-.972-1.768-1.894C9 22.986 9 19.5 9 19.5s0-3.487.418-5.158c.23-.922.908-1.648 1.768-1.894C12.746 12 19 12 19 12s6.254 0 7.814.448Z" fill="#F04C1C"/></svg>