<svg width="1236" height="1190" viewBox="0 0 1236 1190" fill="none" xmlns="http://www.w3.org/2000/svg">
<rect width="1236" height="1190" fill="#FDD231"/>
<path d="M618 1180.7C599.515 1180.7 580.754 1176.52 564.477 1168.62L394.251 1083.78C368.869 1071.7 381.284 1067.51 389.561 1065.19C423.496 1055.2 430.393 1053.1 466.535 1035.67C470.397 1033.81 475.363 1034.51 479.226 1036.6L609.999 1101.91C614.689 1104.24 621.311 1104.24 625.725 1101.91L1135.3 854.151C1139.99 851.826 1143.02 847.178 1143.02 842.529V347.006C1143.02 342.125 1139.99 337.709 1135.02 335.152L625.725 87.6231C621.035 85.2988 614.689 85.2988 609.999 87.6231L100.977 335.385C96.0107 337.709 92.9759 342.357 92.9759 347.238V842.529C92.9759 847.178 96.0107 851.826 100.977 853.918L240.579 921.785C316.449 953.627 362.799 916.207 362.799 878.322V389.307C362.799 382.334 369.421 376.988 377.697 376.988H442.256C450.257 376.988 457.154 382.334 457.154 389.307V878.555C457.154 963.621 401.976 1012.43 306.241 1012.43C276.721 1012.43 253.546 1012.43 188.987 985.469L55.4545 920.623C22.3473 904.586 1.93127 874.604 1.93127 842.297V347.006C1.93127 314.932 22.3473 284.717 55.4545 268.68L564.477 20.918C596.756 5.57812 639.52 5.57812 671.523 20.918L1181.1 268.912C1214.2 284.949 1234.62 314.932 1234.62 347.238V842.529C1234.62 874.604 1214.2 904.586 1181.1 920.856L671.523 1168.62C655.245 1176.52 636.761 1180.7 618 1180.7ZM1029.36 692.385C1029.36 599.649 954.865 575.012 798.434 557.58C640.071 539.916 624.07 530.852 624.07 499.707C624.07 473.908 637.588 439.51 754.843 439.51C859.406 439.51 898.031 458.568 914.033 518.068C915.412 523.647 921.482 527.83 928.379 527.83H994.594C998.732 527.83 1002.59 526.436 1005.35 523.879C1008.11 521.322 1009.49 517.836 1009.22 514.35C999.008 411.852 918.171 364.205 754.843 364.205C609.447 364.205 522.817 415.803 522.817 502.496C522.817 596.395 609.171 622.426 748.497 634.047C915.412 647.76 928.379 668.445 928.379 696.104C928.379 743.983 882.581 764.436 775.259 764.436C640.347 764.436 610.827 735.848 600.895 679.369C599.791 673.326 593.721 668.91 586.272 668.91H520.334C512.057 668.91 505.712 674.488 505.712 681.229C505.712 753.512 552.337 839.74 775.535 839.74C936.656 839.508 1029.36 785.818 1029.36 692.385V692.385Z" fill="black"/>
</svg>
