
<svg width="1280" height="176" viewBox="0 0 1280 176" fill="none" xmlns="http://www.w3.org/2000/svg"> <path d="M1410.84 159L1234 107.381C1150.55 83.0221 1062.3 80.1 977.421 98.885L823.303 132.993C745.995 150.102 665.789 149.226 588.873 130.432L452.081 97.0078C379.929 79.3778 304.825 77.5015 231.882 91.5065L-119.647 159" stroke="#E6E6FF"></path>
			<path d="M-99.6467 88.7478L77.1966 37.1287C160.648 12.7699 248.894 9.84785 333.774 28.6328L487.892 62.7408C565.201 79.8501 645.406 78.9739 722.323 60.1798L859.114 26.7556C931.267 9.12565 1006.37 7.24926 1079.31 21.2543L1430.84 88.7478" stroke="#E6E6FF"></path>
			<path d="M-63.9077 86.9653L112.936 138.584C196.387 162.943 284.633 165.865 369.513 147.08L523.631 112.972C600.94 95.8631 681.145 96.7393 758.062 115.533L894.853 148.958C967.006 166.588 1042.11 168.464 1115.05 154.459L1466.58 86.9654" stroke="#E6E6FF"></path>
			<path d="M1394.41 24.9304L1217.56 76.5495C1134.11 100.908 1045.87 103.83 960.986 85.0455L806.869 50.9375C729.56 33.8282 649.355 34.7044 572.438 53.4985L435.647 86.9227C363.494 104.553 288.39 106.429 215.447 92.4241L-136.082 24.9305" stroke="#E6E6FF"></path>
			<circle cx="115" cy="28" r="4" fill="#CCCCFF"></circle>
			<circle cx="325" cy="82" r="4" fill="#CCCCFF"></circle>
			<circle cx="214" cy="157" r="4" fill="#CCCCFF"></circle>
			<circle cx="716" cy="39" r="4" fill="#CCCCFF"></circle>
			<circle cx="623" cy="101" r="4" fill="#CCCCFF"></circle>
			<circle cx="162" cy="82" r="4" fill="white" stroke="#CCCCFF"></circle>
			<circle cx="1234" cy="71" r="4" fill="white" stroke="#CCCCFF"></circle>
			<circle cx="1212" cy="136" r="4" fill="#CCCCFF"></circle>
			<circle cx="482" cy="75" r="4" fill="white" stroke="#CCCCFF"></circle>
			<circle cx="763" cy="142" r="4" fill="white" stroke="#CCCCFF"></circle> </svg>
