<svg width="157" height="104" viewBox="0 0 157 104" fill="none" xmlns="http://www.w3.org/2000/svg">
<path d="M130.919 1.51878C136.239 2.75653 141.074 5.54246 144.813 9.52503C146.872 11.6804 148.66 14.0795 150.138 16.6688C150.206 16.95 140.55 23.4375 134.694 27.0563C134.481 27.2 133.638 26.2813 132.681 24.8688C131.612 23.0299 130.093 21.4921 128.268 20.3991C126.443 19.3061 124.37 18.6936 122.244 18.6188C115.513 18.1563 111.175 21.6813 111.206 27.575C111.148 29.023 111.478 30.4601 112.163 31.7375C113.644 34.8 116.394 36.6375 125.031 40.3813C140.931 47.2563 147.756 51.7375 151.969 58.15C154.35 62.2017 155.816 66.7249 156.266 71.403C156.715 76.081 156.136 80.8006 154.569 85.2313C152.416 90.0902 149.001 94.2843 144.68 97.3781C140.358 100.472 135.288 102.353 129.994 102.825C124.367 103.47 118.681 103.412 113.069 102.65C104.472 101.237 96.5525 97.1113 90.4689 90.875C88.1701 88.2866 86.2241 85.4053 84.6814 82.3063C85.33 81.8237 86.0131 81.3893 86.7251 81.0063C87.7126 80.4438 91.4501 78.2938 94.9751 76.25L101.375 72.5L102.713 74.45C104.965 77.6715 107.833 80.4158 111.15 82.525C114.5 84.3626 118.295 85.2334 122.111 85.0403C125.928 84.8472 129.615 83.5977 132.763 81.4313C134.386 79.8488 135.401 77.7454 135.63 75.4897C135.858 73.234 135.286 70.9698 134.013 69.0938C132.288 66.5938 128.763 64.55 118.744 60.2063C110.888 57.5573 103.733 53.1666 97.8126 47.3625C94.9934 44.1498 92.9113 40.3591 91.7126 36.2563C90.8262 31.5824 90.6953 26.7966 91.3251 22.0813C92.5012 16.6553 95.317 11.722 99.3909 7.94999C103.465 4.17796 108.6 1.74954 114.1 0.993786C119.701 0.32451 125.371 0.501487 130.919 1.51878ZM78.7751 10.7875L78.8439 19.875H49.9064V102.05H29.5001V19.8938H0.56261V10.9688C0.485649 7.91235 0.569097 4.85397 0.81261 1.80628C0.91886 1.66253 18.5126 1.59378 39.8439 1.63128L78.6626 1.73753L78.7751 10.7875Z" fill="#007ACC"/>
</svg>
