<svg width="271" height="200" viewBox="0 0 271 200" fill="none" xmlns="http://www.w3.org/2000/svg">
<path d="M270.047 128.346C270.047 140.821 266.778 153.078 260.567 163.897C254.356 174.715 245.419 183.718 234.647 190.008C223.874 196.299 211.641 199.657 199.167 199.749C186.692 199.841 174.411 196.664 163.547 190.533C156.243 195.9 147.556 199.064 138.512 199.652C129.468 200.24 120.444 198.227 112.507 193.852C102.661 197.777 92.1537 199.78 81.554 199.752C36.584 199.752 0 164.269 0 120.652C0 77.035 36.584 41.552 81.554 41.552H81.573C90.4746 26.6994 103.676 14.8993 119.43 7.71264C135.184 0.52599 152.748 -1.70852 169.8 1.30473C186.852 4.31798 202.587 12.437 214.924 24.5877C227.26 36.7384 235.618 52.3482 238.89 69.352C248.527 75.8727 256.41 84.6654 261.843 94.954C267.277 105.243 270.095 116.711 270.047 128.346ZM162.824 172.231C164.484 172.23 166.105 172.735 167.471 173.678C173.534 177.844 180.372 180.752 187.579 182.23C194.786 183.708 202.216 183.725 209.43 182.281C216.643 180.836 223.494 177.96 229.577 173.822C235.66 169.684 240.851 164.368 244.843 158.188C248.835 152.009 251.547 145.091 252.82 137.845C254.092 130.599 253.897 123.171 252.249 116.002C250.6 108.832 247.53 102.066 243.221 96.1031C238.911 90.1406 233.449 85.1029 227.159 81.288C226.127 80.6613 225.247 79.8145 224.581 78.808C223.915 77.8016 223.479 76.6604 223.305 75.466C221.18 60.9989 214.522 47.5783 204.289 37.1337C194.055 26.6892 180.773 19.7588 166.353 17.3391C151.932 14.9193 137.116 17.1349 124.033 23.6671C110.951 30.1994 100.278 40.7118 93.547 53.693C92.8191 55.1029 91.696 56.27 90.3151 57.0515C88.9342 57.833 87.3554 58.1949 85.772 58.093C84.152 57.993 82.809 57.945 81.547 57.945C45.613 57.945 16.378 86.078 16.378 120.656C16.378 155.234 45.617 183.366 81.547 183.366C91.2796 183.397 100.901 181.295 109.734 177.209C111.026 176.612 112.451 176.361 113.869 176.481C115.287 176.602 116.649 177.09 117.821 177.897C123.745 181.971 130.898 183.864 138.062 183.254C145.225 182.644 151.955 179.569 157.105 174.552C158.636 173.062 160.688 172.229 162.824 172.231Z" fill="#4F80E1"/>
<path d="M92.19 91.6809H80.011C79.5264 91.6809 79.0617 91.8734 78.7191 92.216C78.3765 92.5587 78.184 93.0233 78.184 93.5079V122.129H78.215L94.015 106.329V93.5089C94.0152 93.0245 93.8232 92.5599 93.4809 92.2171C93.1387 91.8743 92.6744 91.6814 92.19 91.6809Z" fill="#292C44"/>
<path d="M142.071 78.331C140.219 76.4788 137.706 75.4382 135.087 75.4382C132.467 75.4382 129.955 76.4788 128.103 78.331L97.096 109.338L94.017 112.418L78.217 128.218L42.005 164.43C51.6752 171.501 63.059 175.861 74.9789 177.057C86.8988 178.254 98.922 176.245 109.805 171.237C111.097 170.641 112.521 170.391 113.939 170.511C115.356 170.632 116.718 171.12 117.89 171.926C123.813 176 130.967 177.893 138.13 177.283C145.293 176.673 152.023 173.597 157.172 168.58C158.532 167.259 160.308 166.449 162.197 166.29C164.087 166.131 165.973 166.631 167.535 167.706C176.859 174.128 187.941 177.512 199.262 177.392C210.583 177.272 221.591 173.656 230.777 167.038L142.071 78.331ZM134.356 152.898C134.356 153.269 134.208 153.625 133.946 153.888C133.683 154.15 133.327 154.298 132.956 154.298H121.579C121.208 154.298 120.852 154.15 120.589 153.888C120.326 153.625 120.179 153.269 120.179 152.898V141.521C120.179 141.15 120.326 140.794 120.589 140.531C120.852 140.269 121.208 140.121 121.579 140.121H132.956C133.327 140.121 133.683 140.269 133.946 140.531C134.208 140.794 134.356 141.15 134.356 141.521V152.898ZM134.356 135.668C134.356 136.039 134.208 136.395 133.946 136.658C133.683 136.921 133.327 137.068 132.956 137.068H121.579C121.208 137.068 120.852 136.921 120.589 136.658C120.326 136.395 120.179 136.039 120.179 135.668V124.291C120.179 123.92 120.326 123.564 120.589 123.301C120.852 123.039 121.208 122.891 121.579 122.891H132.956C133.327 122.891 133.683 123.039 133.946 123.301C134.208 123.564 134.356 123.92 134.356 124.291V135.668ZM152.603 152.898C152.603 153.269 152.455 153.625 152.193 153.888C151.93 154.15 151.574 154.298 151.203 154.298H139.826C139.455 154.298 139.099 154.15 138.836 153.888C138.573 153.625 138.426 153.269 138.426 152.898V141.521C138.426 141.15 138.573 140.794 138.836 140.531C139.099 140.269 139.455 140.121 139.826 140.121H151.203C151.574 140.121 151.93 140.269 152.193 140.531C152.455 140.794 152.603 141.15 152.603 141.521V152.898ZM152.603 135.668C152.603 136.039 152.455 136.395 152.193 136.658C151.93 136.921 151.574 137.068 151.203 137.068H139.826C139.455 137.068 139.099 136.921 138.836 136.658C138.573 136.395 138.426 136.039 138.426 135.668V124.291C138.426 123.92 138.573 123.564 138.836 123.301C139.099 123.039 139.455 122.891 139.826 122.891H151.203C151.574 122.891 151.93 123.039 152.193 123.301C152.455 123.564 152.603 123.92 152.603 124.291V135.668Z" fill="#292C44"/>
</svg>
