<svg width="25" height="23" viewBox="0 0 25 23" fill="none" xmlns="http://www.w3.org/2000/svg">
<path d="M7.35714 0.995361C3.38449 0.995361 0 4.10679 0 8.14775C0 10.9354 1.24621 13.2824 2.89784 15.2266C4.5438 17.1641 6.66735 18.7903 8.58711 20.1515L11.8994 22.5C12.2622 22.7572 12.7378 22.7572 13.1006 22.5L16.4129 20.1515C18.3327 18.7903 20.4562 17.1641 22.1022 15.2266C23.7538 13.2824 25 10.9354 25 8.14775C25 4.10679 21.6155 0.995361 17.6429 0.995361C15.595 0.995361 13.7931 2.00114 12.5 3.30253C11.2069 2.00114 9.40496 0.995361 7.35714 0.995361Z" fill="#F80505"/>
</svg>
