<svg width="1233" height="1172" viewBox="0 0 1233 1172" fill="none" xmlns="http://www.w3.org/2000/svg">
<path d="M616.069 1171.29C597.584 1171.29 578.823 1167.11 562.546 1159.2L392.32 1074.37C366.937 1062.28 379.353 1058.1 387.629 1055.78C421.564 1045.78 428.462 1043.69 464.604 1026.26C468.466 1024.4 473.432 1025.1 477.295 1027.19L608.068 1092.5C612.758 1094.82 619.379 1094.82 623.794 1092.5L1133.37 844.737C1138.06 842.413 1141.09 837.765 1141.09 833.116V337.593C1141.09 332.712 1138.06 328.296 1133.09 325.739L623.794 78.21C619.104 75.8858 612.758 75.8858 608.068 78.21L99.0455 325.972C94.0794 328.296 91.0446 332.944 91.0446 337.825V833.116C91.0446 837.765 94.0794 842.413 99.0455 844.505L238.647 912.372C314.518 944.214 360.868 906.794 360.868 868.909V379.894C360.868 372.921 367.489 367.575 375.766 367.575H440.325C448.326 367.575 455.223 372.921 455.223 379.894V869.142C455.223 954.208 400.045 1003.02 304.31 1003.02C274.789 1003.02 251.614 1003.02 187.055 976.056L53.5232 911.21C20.4161 895.173 0 865.191 0 832.884V337.593C0 305.519 20.4161 275.304 53.5232 259.267L562.546 11.5049C594.825 -3.83496 637.588 -3.83496 669.592 11.5049L1179.17 259.499C1212.27 275.536 1232.69 305.519 1232.69 337.825V833.116C1232.69 865.191 1212.27 895.173 1179.17 911.443L669.592 1159.2C653.314 1167.11 634.829 1171.29 616.069 1171.29ZM1027.42 682.972C1027.42 590.235 952.934 565.599 796.503 548.167C638.14 530.503 622.138 521.439 622.138 490.294C622.138 464.495 635.657 430.097 752.912 430.097C857.475 430.097 896.1 449.155 912.102 508.655C913.481 514.233 919.551 518.417 926.448 518.417H992.662C996.801 518.417 1000.66 517.022 1003.42 514.466C1006.18 511.909 1007.56 508.423 1007.28 504.937C997.077 402.439 916.24 354.792 752.912 354.792C607.516 354.792 520.886 406.39 520.886 493.083C520.886 586.981 607.24 613.013 746.566 624.634C913.481 638.347 926.448 659.032 926.448 686.691C926.448 734.569 880.65 755.023 773.328 755.023C638.416 755.023 608.895 726.435 598.963 669.956C597.86 663.913 591.79 659.497 584.341 659.497H518.403C510.126 659.497 503.78 665.075 503.78 671.816C503.78 744.099 550.406 830.327 773.603 830.327C934.725 830.095 1027.42 776.405 1027.42 682.972V682.972Z" fill="black"/>
</svg>
