<svg width="25" height="22" viewBox="0 0 25 22" fill="none" xmlns="http://www.w3.org/2000/svg">
<path d="M7.35714 0C3.38449 0 0 3.11143 0 7.15241C0 9.94011 1.24621 12.2871 2.89784 14.2312C4.5438 16.1687 6.66735 17.795 8.58711 19.1562L11.8994 21.5047C12.2622 21.7619 12.7378 21.7619 13.1006 21.5047L16.4129 19.1562C18.3327 17.795 20.4562 16.1687 22.1022 14.2312C23.7538 12.2871 25 9.9401 25 7.15241C25 3.11143 21.6155 0 17.6429 0C15.595 0 13.7931 1.00578 12.5 2.30717C11.2069 1.00578 9.40496 0 7.35714 0Z" fill="#F80505"/>
</svg>
