<svg width="150" height="120" fill="none" xmlns="http://www.w3.org/2000/svg"><circle cx="60.448" cy="60" r="60" fill="url(#a)"/><mask id="b" style="mask-type:alpha" maskUnits="userSpaceOnUse" x="0" y="0" width="121" height="120"><circle cx="60.448" cy="60" r="60" fill="#C4C4C4"/></mask><g mask="url(#b)"><path d="M55.594 55.244c-7.183 1.76-17.76-3.237-16.912-6.256.849-3.018-10.232-20.23-4.267-20.668 5.965-.436 6.15-18.098 15.177-14.13 9.027 3.97 21.08-6.01 21.99-.577.91 5.433 16.444-9.133 13.333 3.224-3.112 12.357-.27 26.975-5.707 26.975-5.436 0-8.83 5.228-8.83 5.228l-14.784 6.204Z" fill="#08173A"/><path d="m32.643 140.488 5.854-64.39L65.06 64.39l26.42 10.485 20.186 62.594-79.024 3.019Z" fill="#B56586"/><path d="M38.497 76.098S-5.797 127.384-2.28 143.445c3.517 16.061 97.788 16.336 101.305 12.709 3.516-3.628-3.517-42.98-10.55-39.365-4.967 2.501-29.937 6.092-46.16 8.681a6.237 6.237 0 0 1-6.044-2.489 6.128 6.128 0 0 1-.447-6.48c7.235-13.685 15.24-33.386 12.895-35.888-3.164-3.49-10.222-4.515-10.222-4.515ZM87.048 73.17s71.449 20.227 71.449 30.537c0 7.496-27.865 51.282-32.065 44.935-4.199-6.347-19.592-36.908-6.267-38.859 13.325-1.951 13.012-.749 3.21-1.49-26.37 6.915-33.432-10.365-39.035-20.65-5.603-10.286 2.708-14.472 2.708-14.472Z" fill="#B56586"/><path d="m53.171 71.978 4.025-31.002h9.212l4.242 29.057a4.148 4.148 0 0 1-1.648 3.928l-5.2 3.838a6.382 6.382 0 0 1-8.676-1.087l-.996-1.28a4.56 4.56 0 0 1-.959-3.454Z" fill="#7E402F"/><ellipse cx="60.448" cy="49.756" rx="10.244" ry="11.707" fill="#7E402F"/></g><path d="m106.138 23.65 43.414 18.985-12.734 22.07-19.394-9.213-12.05 5.385 1.773-10.16-13.023-6.243 12.014-20.823Z" fill="#F24738"/><path d="m147.915 39.327-13.703 23.751-19.402-9.201-12.085 5.472 1.809-10.236-1.952-.936-11.084-5.297 12.983-22.503 35.478 15.48 7.956 3.47Z" fill="#E05A5A"/><path fill-rule="evenodd" clip-rule="evenodd" d="M128.804 38.307a6.436 6.436 0 0 1-.579 2.065c-.22.487-.366.781-.645 1.344-.208.418-.488.984-.927 1.887-1.03 2.118-1.181 2.38-1.647 3.187a6.266 6.266 0 0 1-1.309 1.701 4.433 4.433 0 0 1-3.414 1.142 6.448 6.448 0 0 1-2.071-.582 41.72 41.72 0 0 1-1.471-.703c-.404-.2-.944-.465-1.757-.86-2.119-1.03-2.381-1.182-3.187-1.647a6.455 6.455 0 0 1-1.705-1.304 4.482 4.482 0 0 1-1.138-3.42 6.416 6.416 0 0 1 .582-2.07c.276-.622.428-.931.894-1.88.172-.348.386-.783.664-1.352 1.036-2.115 1.187-2.377 1.652-3.184a6.347 6.347 0 0 1 1.312-1.706c.454-.422.995-.74 1.584-.931a4.318 4.318 0 0 1 1.831-.211 6.301 6.301 0 0 1 2.067.587c.622.276.931.428 1.879.895l1.352.663c2.116 1.036 2.378 1.187 3.184 1.652a6.476 6.476 0 0 1 1.71 1.307 4.487 4.487 0 0 1 1.139 3.42Zm-6.152 9.033c.402-.377.736-.82.985-1.312l.216-.382c.315-.555.572-1.008 1.426-2.722 1.036-2.08 1.153-2.332 1.529-3.17a4.954 4.954 0 0 0 .454-1.575c.041-.401-.005-.806-.134-1.188a2.71 2.71 0 0 0-.605-1.025 4.828 4.828 0 0 0-1.308-.99c-.803-.449-1.049-.577-3.126-1.618-2.076-1.042-2.323-1.156-3.163-1.527a4.826 4.826 0 0 0-1.581-.456 2.752 2.752 0 0 0-1.18.131 2.626 2.626 0 0 0-1.055.595c-.405.374-.74.817-.99 1.309-.445.797-.573 1.043-1.615 3.12-1.041 2.076-1.156 2.324-1.529 3.169a4.62 4.62 0 0 0-.454 1.576 2.83 2.83 0 0 0 .733 2.21c.379.403.823.739 1.314.993.797.445 1.044.573 3.12 1.615 2.077 1.041 2.324 1.155 3.169 1.529a4.77 4.77 0 0 0 1.576.453 2.885 2.885 0 0 0 2.218-.735Z" fill="#fff"/><path fill-rule="evenodd" clip-rule="evenodd" d="M115.979 36.365a4.425 4.425 0 1 1 5.794 6.69 4.425 4.425 0 0 1-5.794-6.69Zm.332 2.07a2.87 2.87 0 0 0 1.285 3.844 2.882 2.882 0 0 0 3.858-1.298 2.87 2.87 0 0 0-5.143-2.546Z" fill="#fff"/><path d="M126.222 38.002a.512.512 0 1 1-.917-.455.512.512 0 0 1 .917.455Z" fill="#fff"/><defs><radialGradient id="a" cx="0" cy="0" r="1" gradientUnits="userSpaceOnUse" gradientTransform="matrix(0 60 -60 0 60.448 60)"><stop stop-color="#F4C7D9"/><stop offset="1" stop-color="#F4C7D9" stop-opacity=".41"/></radialGradient></defs></svg>