<svg width="150" height="120" fill="none" xmlns="http://www.w3.org/2000/svg"><circle cx="89.474" cy="60" r="60" fill="url(#a)"/><mask id="b" style="mask-type:alpha" maskUnits="userSpaceOnUse" x="29" y="0" width="121" height="120"><circle cx="89.474" cy="60" r="60" fill="#5C7E84"/></mask><g mask="url(#b)"><path d="m142.157 90.732 10.244 1.463-26.342 65.545c-14.44.957-44 3.236-44 3.236l-.148-.265c-1.05-1.813-7.319-12.589-13.762-24.386-8.072-14.667-22.386-30.899-21.114-32.423 2-2.341 71.869-3.237 95.122-13.17Z" fill="#4668DC"/><path d="M123.564 66.002a11.079 11.079 0 0 0-1.423-9.945c.599-3.755-.766-7.557-3.603-10.035-.878-5.273-5.364-9.133-10.62-9.139-.655 0-1.309.064-1.952.192-2.007-2.939-5.301-4.691-8.818-4.69a10.716 10.716 0 0 0-3.477.59 4.349 4.349 0 0 0-5.04-.385 10.626 10.626 0 0 0-14.75.82 4.423 4.423 0 0 0-4.77-.58c-1.567.763-2.56 2.376-2.55 4.143v.205c-4.88 1.155-8.335 5.579-8.339 10.676.008.567.054 1.132.139 1.692a4.597 4.597 0 0 0-2.016 3.845 4.54 4.54 0 0 0 .378 1.807c-3.18 3.628-3.617 8.96-1.07 13.073-2.857 4.609-1.932 10.655 2.166 14.162.13.247.273.486.428.718v.41c3.437 7.342 9.736 12.886 17.372 15.29a10.959 10.959 0 0 0 2.066-.205 10.638 10.638 0 0 0 6.953 2.564h.933a10.542 10.542 0 0 0 10.657.935h.189a10.574 10.574 0 0 0 4.359-.948c.306.019.613.019.919 0 4.697.004 8.74-3.374 9.65-8.062a10.985 10.985 0 0 0 5.202-6.55c3.551-1.893 5.773-5.636 5.77-9.714.019-.359.019-.718 0-1.077a11.105 11.105 0 0 0 1.335-9.83l-.088.038Z" fill="#08173A"/><path d="M111.425 100.372a36.145 36.145 0 0 1-14.634 7.541c-6.283 1.647-14.634-2.598-14.634-2.598l1.888-26.438.964-13.523 3.353-1.102 8.429-2.789 14.634 38.909Z" fill="#F58A41"/><path opacity=".44" d="m93.864 69.387-8.78 9.637.875-13.53 3.048-1.104 4.857 4.997Z" fill="#F26002"/><path d="M109.975 69.492c.302 5.388-2.13 10.691-6.92 15.087-.152.116-.278.232-.43.33-.217.141-.42.29-.609.447-2.171 1.607-5.259 2.563-8.541 2.644C84.375 88 77 79.737 77 69.492 77 59.246 84.376 51 93.475 51c4.17.205 7.938 1.697 10.138 4.016 4.347 4.285 6.568 9.34 6.362 14.476Z" fill="#D6793D"/><ellipse cx="90.937" cy="48.293" rx="5.854" ry="4.39" fill="#08173A"/></g><path d="M51.178 38.167.974 47.01 8.8 73.57l22.61-4.725 11.275 8.783.687-11.175 15.192-3.223-7.386-25.063Z" fill="#2DACC1"/><path d="M53.756 35.712 3.563 44.597l8.297 28.158 22.614-4.737 11.248 8.716.705-11.113 15.19-3.23-7.861-26.679Z" fill="#4DD5FF"/><path d="M44.747 44.344a7.799 7.799 0 0 1-1.974 1.239 3.926 3.926 0 0 0 1.017-2.597 7.662 7.662 0 0 1-2.093 1.621 3.827 3.827 0 0 0-4.404.243c-1.265 1.003-1.785 2.706-1.307 4.285.082.294.199.577.347.844-3.044.74-6.27.114-8.87-1.72-.483 2.043.681 4.138 2.656 4.779a3.826 3.826 0 0 1-1.825.025l.012.04c.543 1.816 2.254 3.012 4.1 2.865a3.75 3.75 0 0 1-.942.415c-.236.074-.48.122-.727.141.956 1.406 2.665 2.059 4.271 1.63a7.697 7.697 0 0 1-4.149 2.992c-.296.09-.597.161-.901.216 2.038.622 4.201.632 6.229.027 6.865-2.022 8.899-8.963 7.41-14.013l-.146-.498a7.713 7.713 0 0 0 1.296-2.534Z" fill="#fff"/><defs><radialGradient id="a" cx="0" cy="0" r="1" gradientUnits="userSpaceOnUse" gradientTransform="matrix(0 60 -60 0 89.474 60)"><stop stop-color="#DBE3FF"/><stop offset="1" stop-color="#B9C9FF" stop-opacity=".6"/></radialGradient></defs></svg>