<svg width="160" height="120" fill="none" xmlns="http://www.w3.org/2000/svg"><circle cx="99.205" cy="60" r="60" fill="url(#a)"/><mask id="b" style="mask-type:alpha" maskUnits="userSpaceOnUse" x="39" y="0" width="121" height="120"><circle cx="99.205" cy="60" r="60" fill="#FFA56A"/></mask><g mask="url(#b)"><path d="M120.723 50.372c6.052-12.062 10.433-27.555 0-27.088-10.433.467-12.851-16.401-29.488-4.226-16.636 12.175-24.752 6.61-25.702 23.97-.95 17.361-22.612 11.659-27.322 34.67C33.5 100.712-6.546 107.79-1.368 127.51c5.179 19.719-26.373 21.586-21.194 35.679 5.178 14.092-43.34 20.186-19.321 30.506 24.018 10.321 53.708-16.401 71.142-8.919 17.435 7.481 29.678-21.12 46.644-20.654 16.965.467 14.079-39.88 23.828-63.498 9.749-23.618 20.992-50.251 20.992-50.251Z" fill="#08173A"/><path d="M208.927 162.726c-1.605 10.296-71.416 12.031-81.134-13.902-9.719-25.932-15.282-65.06-11.063-69.855 4.218-4.795 5.886-5.798 5.886-5.798s1.431 4.956 3.646 12.105c5.276 16.962 15.057 45.942 20.682 47.925 3.733 1.338 18.28 5.736 32.354 11.151h.062c15.481 5.885 30.413 12.972 29.567 18.374Z" fill="#A44322"/><path d="M224.688 320.583c-1.26 20.119-89.191 20.358-116.044 5.797a20.156 20.156 0 0 1-5.608-4.225c-16.18-18.685 13.357-75.356 13.357-99.058 0-17.038-25.202-19.402-44.419-31.272-7.56-4.64-14.1-10.725-17.906-19.716-8.493-20.018.983-56.03 18.574-80.172a78.667 78.667 0 0 1 13.71-14.774c7.561-6.124 15.84-9.846 24.421-9.846 21.763 0 16.873 33.862 14.151 47.09-1.839 8.965-17.855 11.153-22.152 17.189a5.336 5.336 0 0 0-1.059 3.143c.004.668.101 1.333.29 1.974.229.791.555 1.552.97 2.264 3.025 5.243 10.9 10.147 18.096 13.29 7.195 3.144 23.45 1.61 41.331 1.572 28.315 0 60.738 3.621 67.921 35.409 6.452 28.53-4.222 109.482-5.633 131.335Z" fill="#F26002"/><path d="m118.23 42.318-.175 29.32c-.01 1.531-.846 2.932-2.173 3.642l-5.581 3.029c-2.922 1.548-6.517.508-8.215-2.377l-.787-1.342a4.631 4.631 0 0 1-.449-3.618l4.994-17.65 3.496-12.346 8.89 1.342Z" fill="#99482C"/><path d="M91.888 85.893c-.006 4.903-3.401 9.175-8.24 10.369-4.84 1.194-9.885-.995-12.248-5.313a79.554 79.554 0 0 1 13.993-14.851c3.95 1.71 6.5 5.553 6.495 9.795Z" fill="#CC4509"/><ellipse cx="83.108" cy="121.463" rx="2.927" ry="7.317" fill="url(#c)"/><path opacity=".52" d="m115.303 56.701-14.634 13.543 4.63-17.561 10.004 4.018Z" fill="#7D2A0F"/><ellipse cx="111.068" cy="48.871" rx="11.595" ry="10.015" transform="rotate(-81.35 111.068 48.871)" fill="#A44322"/><path opacity=".33" d="M179.693 146.341c-2.154-.479-36.641-8.209-40.348-8.713-3.706-.504-15.262-49.553-15.262-49.553l.988-.27c5.438 16.825 15.518 45.571 21.315 47.537 3.899 1.352 18.84 5.69 33.307 10.999Z" fill="#7D2A0F"/><path d="M80.064 93.655C17.154 73.431-118.542-43.244-117.123-51.68a142.48 142.48 0 0 1 3.798-15.968c.659-2.216 1.406-4.47 2.229-6.662 1.406-3.778-47.676-40.134 4.951-10.074-37.558-42.174 8.687-8.526 14.512-3.778 15.55 12.593 12.03-22.327 21.21-2.418C-54.402-55.837 53.296 51.884 82.725 76.151c22.071 18.184-2.66 17.504-2.66 17.504Z" fill="#99482C"/></g><path d="M51.613 9 18.7 32.712l9.515 21.05 13.077-8.651 8.427 5.751V39.331l11.504-7.392L51.613 9Z" fill="#F24738"/><path d="m49.382 11.238-32.92 23.707L25.978 56l13.08-8.65 8.429 5.742v-11.53l11.497-7.38-9.603-22.944Z" fill="#F90"/><path d="m10.756 29.687-6.67-4.988.576-.77 6.67 4.987-.576.77ZM14.082 28.659l-1.075-8.262.954-.124 1.075 8.261-.954.125ZM.981 32.134l.282-.92 7.964 2.436-.282.92-7.964-2.436Z" fill="#494949"/><path d="M41.084 29.381a3.02 3.02 0 0 0-2.52.077 2.995 2.995 0 0 0-1.378 1.384 3.92 3.92 0 0 0-.34 1.05 3.398 3.398 0 0 0-.993-.4 2.868 2.868 0 0 0-1.912.21 3.249 3.249 0 0 0-1.664 1.967 3.896 3.896 0 0 0 .22 2.722 4.343 4.343 0 0 0 2.234 2.148c1.213.525 2.464.946 3.742 1.26l1.673.488c.15.062.318.062.469 0a.732.732 0 0 0 .34-.354c.248-.592.487-1.155.708-1.652a25.786 25.786 0 0 0 1.453-3.82 4.65 4.65 0 0 0-.157-3.15 3.75 3.75 0 0 0-1.875-1.93Z" fill="#fff"/><defs><radialGradient id="a" cx="0" cy="0" r="1" gradientUnits="userSpaceOnUse" gradientTransform="matrix(0 60 -60 0 99.205 60)"><stop stop-color="#FFC097"/><stop offset="1" stop-color="#FFA56A" stop-opacity=".34"/></radialGradient><radialGradient id="c" cx="0" cy="0" r="1" gradientUnits="userSpaceOnUse" gradientTransform="matrix(0 7.31707 -2.92683 0 83.108 121.463)"><stop/><stop offset="1" stop-color="#FFAB01" stop-opacity="0"/><stop offset="1" stop-opacity="0"/></radialGradient></defs></svg>